<?xml version="1.0" encoding="UTF-8"?><svg xmlns="http://www.w3.org/2000/svg" viewBox="0 0 395.12 97.21"><defs><style>.cls-1{fill:#fff;}.cls-2{fill:#95c93f;}.cls-3{fill:#4b4b4d;}</style></defs><g id="Icon"><path id="Bottom" class="cls-2" d="M53.03,54.1c-.35,2.33-.14,2-.37,3.09-.65,3.28,3.43,5.66,4.07,6,2.85,.36,5.67,.97,8.42,1.8,3.17,1.4,13.65,8.42,13.65,8.42-4.54-2.28-9.22-4.29-14-6,.45,1.19,1,2.64,1.47,3.77,.61,1.67,.89,3.43,.85,5.2-.74-1.96-1.69-3.83-2.84-5.58-1.15-1.55-2.42-3.01-3.8-4.37h-.22c-1.56,.01-3.11,.12-4.65,.33,2.76,2.72,5.54,5.65,6.45,7.22,1.63,2.98,2.86,6.15,3.65,9.45-2.24-3.31-4.89-6.34-7.87-9-2.04,.94-4.01,2.04-5.88,3.28-3.14,2.2-6.79,8-6.79,8,0,0,1.37-5.93,3.57-8.32,1.68-1.84,3.9-4.76,4.85-6-2.25-1.41-4.59-2.67-7-3.79-.96,1.86-1.77,3.79-2.43,5.77-.57,2.1-.9,4.25-1,6.42-.62-1.73-.92-3.56-.86-5.39,.1-1.51,.19-3.49,.25-4.91-2.17,1.14-4.23,2.48-6.15,4-2.73,2.55-13.44,4-13.44,4,0,0,7-2.31,10.28-5.57,1.29-1.29,3.51-3.24,5.72-5.14-2.05-.03-4.11,.07-6.15,.3-6,.73-14.69,5.62-14.69,5.62,0,0,6.65-5.23,10.54-7.53,1.6-1,5.61-2.2,9.11-3.18,2.12-.96,4.1-2.19,5.9-3.66,1.68-1.36,2.4-1.29,3.37-4.24H4.03c2.77,22.52,21.9,39.45,44.59,39.45,22.69-.02,41.81-16.93,44.61-39.45H53.03Z"/><path id="Top" class="cls-2" d="M53.75,44.52c-.08,1.21-.21,2.39-.37,3.56h40.19c-.34-24.6-20.37-44.37-44.97-44.38C23.97,3.7,3.94,23.53,3.67,48.15H48.15c.32-1.93,.57-3.88,.71-5.85-2.35-1.65-4.86-3.08-7.48-4.25-4.75-2-13.18-2.15-13.18-2.15,0,0,7.11-1,11-1,1.91,0,6.59,1.15,9.84,2-.06-2.08-.27-4.15-.63-6.2-1.26-.74-2.58-1.37-3.94-1.9-2.77-1.05-7.95-.78-7.95-.78,0,0,4.15-1.32,6.44-1,1.63,.22,3.25,.54,4.85,.95-.19-.71-.4-1.42-.64-2.11-.77-2.23-1.14-4.58-1.11-6.94,0,0,1.85,.63,4.41,5.71,1.06,2.12,1.87,4.37,2.4,6.68,1.37-1.19,2.92-2.52,3.93-3.28,2.03-1.55,6.21-3,6.73-3.17-.5,.32-5,3.18-7.03,5.58-1.13,1.36-2.13,2.81-3,4.35,.23,1.74,.36,3.49,.39,5.24,2.53-1.23,5.16-2.25,7.86-3.06,2.9-.47,13.62-.29,13.62-.29,0,0-13.1,1.44-16.42,3.59-1.87,1.24-3.61,2.66-5.2,4.25Zm-6.41-11.82v.03s-4.02-.08-5.72-.8c.38,.21,3.74,1.96,5.68,1.71,0,0-5,3.56-10.62-2.19,0,0,6.22-5.51,10.66,1.25Zm-14.09-10.62s.02,.01,.02,.01h-.02c-.29-.24-3.15-2.43-4.05-3.9,.2,.41,1.85,3.69,3.52,4.6,0,0-6,0-7.14-7.8-.02,0,8.03-.8,7.67,7.09Zm-5.89,9.82s.03,.02,.05,.03h-.03s-.01,0-.02-.03c-2.17-1.26-7.12-.87-7.12-.87,2.22,0,6.76,1.93,6.76,1.93-8.23,5.32-12.4-3.81-12.4-3.81,8.62-3.47,12.46,2.28,12.76,2.75Zm1.49,10.35s4.85-8.11,12-2.28c0,0-4.46,1.32-6.53,1.11,0,0,4.66,.9,6.8-.1-.09,0-4.28,5.59-12.35,1.27h.08Zm-.55-3.74c-4.97,10.11-14.48,3.6-14.48,3.6h.03c6.72-8.89,14.24-4.84,14.24-4.84-2.8,0-7.29,3.15-7.57,3.35,2.19-1.3,7.78-2.11,7.78-2.11Zm7.09-6.01v-.02c-.32-.22-4.47-3.15-5.77-5.12,.18,.34,2.68,4.94,5.08,6.12,0,0-8.21,.26-10.18-10.28-.02,0,10.94-1.5,10.87,9.28,.01,.02,.02,.02,.02,.02h-.02Zm9.13-7.05h-.02v-.02c-.3-.31-4.21-4.31-5.19-6.7,.1,.34,1.87,5.87,4.23,7.64,0,0-8.9-1.38-8.9-13.15-.02,0,12.12,.57,9.86,12.21l.02,.02Zm5.35-6.18s.23-3.94,.98-5.6c-.22,.38-2.06,3.61-1.88,5.53,.06,0-3.3-5.05,2.56-10.37h0c.27,.33,5,6.42-1.66,10.44Zm4.27,7.74l.06-.15c.02-.05,.05-.12,.09-.21,.26-.64,.85-2.04,1.58-3.51,.19-.37,.38-.74,.58-1.11,.07-.13,.14-.27,.22-.4,.03-.07,.07-.14,.11-.2,.48-.85,.99-1.63,1.48-2.2,.03-.04,.06-.08,.09-.11-.03,.02-.06,.04-.09,.07-.1,.09-.22,.21-.38,.35l-.23,.23c-.08,.07-.18,.16-.28,.27-.05,.04-.09,.08-.13,.13l-.14,.14c-.1,.09-.19,.19-.29,.29-.06,.06-.13,.12-.19,.19-.3,.31-.63,.66-.94,1.02-.08,.09-.16,.18-.23,.27-.24,.27-.47,.55-.69,.84-.2,.26-.4,.52-.59,.79-.14,.2-.27,.41-.4,.61-.13,.21-.25,.41-.35,.61-.1,.19-.19,.37-.27,.56-.01,.03-.03,.07-.05,.11l-.09,.24c-.04,.1-.07,.2-.1,.29-.03,.1-.06,.19-.08,.29,.02,.03-2.46-9.21,8.97-14.27h.02s-.01,0-.02,0c.18,.47,4.42,12.11-7.66,14.86Zm9.19-3.24s.83-6.83,9.8-7.16c0,0-.11,9.3-9.07,7.88,0,0,3.08-3.27,4.95-4.15-.49,.17-4.43,1.64-5.68,3.43Zm-5.48,12.74s3.12-4.35,5.17-5.65c-.34,.18-4.93,2.58-6.13,4.93,0,0-.14-8.11,10.31-9.92,0,0,1.35,10.83-9.35,10.64Zm10.18-1.19s3.67-4.1,5.94-5.22c-.58,.22-5.37,2.11-6.84,4.37,0,0,.78-8.39,11.76-9.06,.01,0,.14,11.36-10.86,9.91Zm5.46,3.57c.31-.17,6.69-3.35,12.44,4.24,0,0-8.31,5.68-12.64-3.15,0,0,4.82,.7,6.76,1.81-.46-.32-4.2-2.9-6.56-2.9Zm-1.08,2.91s-5.19,6.39-10.64,.47c0,0,3.96-.58,5.74-.15-.37-.12-3.98-1.32-5.85-.75,0,0,4.33-4.3,10.75,.43Z"/><g id="Leaves"><path class="cls-1" d="M85.93,43.13s-8.31,5.68-12.64-3.15c0,0,4.82,.7,6.76,1.81-.46-.32-4.2-2.9-6.56-2.9,.31-.17,6.69-3.35,12.44,4.24Z"/><path class="cls-1" d="M68.03,35.32s3.67-4.1,5.94-5.22c-.58,.22-5.37,2.11-6.84,4.37,0,0,.78-8.39,11.76-9.06,.01,0,.14,11.36-10.86,9.91Z"/><path class="cls-1" d="M73.13,16.61s-.11,9.3-9.07,7.88c0,0,3.08-3.27,4.95-4.15-.49,.17-4.43,1.64-5.68,3.43,.02,0,.83-6.83,9.8-7.16Z"/><path class="cls-1" d="M57.85,36.51s3.12-4.35,5.17-5.65c-.34,.18-4.93,2.58-6.13,4.93,0,0-.14-8.11,10.31-9.92,0,0,1.35,10.83-9.35,10.64Z"/><path class="cls-1" d="M72.41,41.8s-5.19,6.39-10.64,.47c0,0,3.96-.58,5.74-.15-.37-.12-3.98-1.32-5.85-.75,0,0,4.33-4.3,10.75,.43Z"/><path class="cls-1" d="M41.12,40.98c-.09,0-4.28,5.59-12.35,1.27h.08s4.85-8.11,12-2.28c0,0-4.46,1.32-6.53,1.11,0,0,4.66,.9,6.8-.1Z"/><path class="cls-1" d="M47.34,32.73s-4.02-.08-5.72-.8c.38,.21,3.74,1.96,5.68,1.71,0,0-5,3.56-10.62-2.19,0,0,6.22-5.51,10.66,1.25v.03Z"/><path class="cls-1" d="M28.3,38.51c-4.97,10.11-14.48,3.6-14.48,3.6h.03c6.72-8.89,14.24-4.84,14.24-4.84-2.8,0-7.29,3.15-7.57,3.35,2.19-1.3,7.78-2.11,7.78-2.11Z"/><path class="cls-1" d="M20.24,31.03c2.22,0,6.76,1.93,6.76,1.93-8.23,5.32-12.4-3.81-12.4-3.81,8.62-3.47,12.46,2.28,12.76,2.75-2.17-1.26-7.12-.87-7.12-.87Z"/><path class="cls-1" d="M34.7,33.48s-8.21,.26-10.18-10.28c-.02,0,10.94-1.5,10.87,9.28-.32-.22-4.47-3.15-5.77-5.12,.18,.34,2.68,4.94,5.08,6.12Z"/><path class="cls-1" d="M32.72,22.79s-6,0-7.14-7.8c-.02,0,8.03-.8,7.67,7.09-.29-.23-3.15-2.42-4.05-3.89,.2,.41,1.85,3.69,3.52,4.6Z"/><path class="cls-1" d="M44.5,25.43c-.3-.31-4.21-4.31-5.19-6.7,.1,.34,1.87,5.87,4.23,7.64,0,0-8.9-1.38-8.9-13.15-.02,0,12.12,.57,9.86,12.21Z"/><path class="cls-1" d="M49.87,19.27s.23-3.94,.98-5.6c-.22,.38-2.06,3.61-1.88,5.53,.06,0-3.3-5.05,2.56-10.37,.27,.33,5,6.42-1.66,10.44Z"/><path class="cls-1" d="M54.14,27.01c.84-2.03,2.55-6.03,4.27-7.95-2.18,2.08-4.67,4.39-5.58,7.36,.02,.03-2.46-9.21,8.97-14.27,.18,.47,4.42,12.11-7.66,14.86Z"/></g><path id="Outline" class="cls-2" d="M48.6,97.21C21.77,97.18,.03,75.44,0,48.61,.03,21.78,21.77,.03,48.6,0c26.84,.03,48.58,21.77,48.61,48.61-.03,26.83-21.78,48.58-48.61,48.6Zm0-95.21C22.89,2.05,2.06,22.9,2.03,48.61c.03,25.73,20.88,46.58,46.61,46.61,25.73-.03,46.58-20.88,46.61-46.61-.02-25.75-20.9-46.61-46.65-46.61h0Z"/></g><g id="Layer_2"><g><path class="cls-3" d="M130.94,53.18h-20c.53,3.4,3.57,5.84,7,5.61,2.62,.03,5.14-1.04,6.95-2.94l4.65,4.12c-2.84,3.54-7.18,5.52-11.71,5.35-8.61,0-15-6.05-15-14.82v-.1c0-8.19,5.83-14.93,14.18-14.93,9.57,0,14,7.44,14,15.57v.1c.02,.81,.02,1.29-.07,2.04Zm-13.85-11.18c-3.37,0-5.57,2.41-6.21,6.1h12.25c-.48-3.64-2.62-6.1-6.04-6.1h0Z"/><path class="cls-3" d="M170.03,64.7v-16c0-3.86-1.71-5.84-4.76-5.84s-4.92,2-4.92,5.84v16h-8.13v-16c0-3.86-1.71-5.84-4.76-5.84s-4.92,2-4.92,5.84v16h-8.13v-28.69h8.13v4.06c1.87-2.4,4.33-4.6,8.45-4.6,3.74,0,6.58,1.66,8.07,4.55,2.26-2.9,5.74-4.58,9.42-4.55,6,0,9.68,3.64,9.68,10.54v18.69h-8.13Z"/><path class="cls-3" d="M196.63,65.32c-8.88,0-15.46-6.58-15.46-14.82v-.1c0-8.24,6.63-14.93,15.56-14.93s15.46,6.58,15.46,14.82v.11c0,8.23-6.63,14.92-15.56,14.92Zm7.54-14.92c.17-4.21-3.11-7.75-7.31-7.91-.08,0-.15,0-.23,0-4.65,0-7.44,3.58-7.44,7.81v.11c-.16,4.21,3.12,7.74,7.32,7.9,.07,0,.14,0,.22,0,4.66,0,7.44-3.58,7.44-7.81v-.1Z"/><path class="cls-3" d="M225.08,65.16c-5,0-8.34-2-8.34-8.61v-13.59h-3.42v-6.95h3.42v-7.31h8.13v7.33h6.74v6.95h-6.74v12.25c0,1.87,.8,2.78,2.62,2.78,1.4,.01,2.77-.33,4-1v6.53c-1.94,1.13-4.16,1.69-6.41,1.62Z"/><path class="cls-3" d="M235.09,32.85v-7.22h8.56v7.22h-8.56Zm.21,31.83v-28.67h8.13v28.69l-8.13-.02Z"/><path class="cls-3" d="M262.47,65.32c-8.88,0-15.45-6.58-15.45-14.82v-.1c0-8.24,6.63-14.93,15.56-14.93s15.45,6.58,15.45,14.82v.11c0,8.23-6.63,14.92-15.56,14.92Zm7.56-14.92c.17-4.21-3.11-7.75-7.31-7.91-.08,0-.15,0-.23,0-4.65,0-7.43,3.58-7.43,7.81v.11c-.16,4.21,3.12,7.74,7.32,7.9,.07,0,.14,0,.22,0,4.65,0,7.43-3.58,7.43-7.81v-.1Z"/><path class="cls-3" d="M299.38,64.7v-16c0-3.86-1.82-5.84-4.92-5.84s-5.08,2-5.08,5.84v16h-8.13v-28.69h8.13v4.06c1.87-2.4,4.27-4.6,8.39-4.6,6.16,0,9.74,4.07,9.74,10.65v18.58h-8.13Z"/><path class="cls-3" d="M328.69,64.7v-3.11c-2.2,2.45-5.37,3.78-8.66,3.64-5.41,0-9.85-3.11-9.85-8.77v-.11c0-6.25,4.77-9.14,11.56-9.14,2.38-.02,4.75,.38,7,1.17v-.48c0-3.37-2.08-5.24-6.15-5.24-2.71,0-5.4,.53-7.91,1.55l-2-6.2c3.48-1.6,7.29-2.39,11.12-2.3,8.88,0,12.78,4.6,12.78,12.35v16.64h-7.89Zm.16-11.56c-1.63-.72-3.4-1.08-5.19-1.07-3.47,0-5.61,1.4-5.61,4v.11c0,2.19,1.82,3.48,4.44,3.48,3.79,0,6.36-2.09,6.36-5v-1.52Z"/><path class="cls-3" d="M341.26,64.7V25.63h8.13v39.07h-8.13Z"/><path class="cls-3" d="M354.74,64.7V25.63h8.13v39.07h-8.13Z"/><path class="cls-3" d="M384.1,65.37c-2.19,5.83-4.54,8-9.41,8-2.55,.03-5.05-.66-7.22-2l2.73-5.88c1.04,.66,2.24,1.04,3.47,1.12,1.27,.12,2.45-.66,2.84-1.87l-11.23-28.77h8.61l6.53,19.52,6.25-19.52h8.45l-11.02,29.4Z"/></g><g><polygon class="cls-3" points="114.45 79.14 104.38 79.14 104.38 71.41 103.2 71.41 103.2 88.16 104.38 88.16 104.38 80.26 114.45 80.26 114.45 88.16 115.64 88.16 115.64 71.41 114.45 71.41 114.45 79.14"/><polygon class="cls-3" points="120.85 80.26 130.21 80.26 130.21 79.12 120.85 79.12 120.85 72.53 130.86 72.53 130.86 71.41 119.66 71.41 119.66 88.16 130.93 88.16 130.93 87.04 120.85 87.04 120.85 80.26"/><path class="cls-3" d="M141.96,71.37h-1.16l-7.28,16.78h1.24l2.09-4.87h9l2.09,4.87h1.28l-7.19-16.69-.07-.09Zm-.6,1.23l1,2.53,3,7.06h-8l3.05-7.14,.95-2.45Z"/><polygon class="cls-3" points="152.98 71.41 151.8 71.41 151.8 88.16 162.22 88.16 162.22 87.04 152.98 87.04 152.98 71.41"/><polygon class="cls-3" points="161.28 72.53 167.32 72.53 167.32 88.16 168.51 88.16 168.51 72.53 174.54 72.53 174.54 71.41 161.28 71.41 161.28 72.53"/><polygon class="cls-3" points="188.47 79.14 178.4 79.14 178.4 71.41 177.21 71.41 177.21 88.16 178.4 88.16 178.4 80.26 188.47 80.26 188.47 88.16 189.66 88.16 189.66 71.41 188.47 71.41 188.47 79.14"/><polygon class="cls-3" points="200.08 78.92 199.16 80.4 198.18 78.83 193.25 71.48 193.21 71.41 191.77 71.44 198.55 81.43 198.55 88.16 199.74 88.16 199.74 81.43 206.51 71.44 205.1 71.41 200.08 78.92"/><path class="cls-3" d="M221.18,71.41h-5.21v16.74h5.21c5,0,8.34-3.38,8.34-8.45s-3.35-8.29-8.34-8.29Zm0,15.63h-4v-14.51h4c4.26,0,7.12,2.89,7.12,7.22s-2.86,7.29-7.12,7.29Z"/><rect class="cls-3" x="232.17" y="71.41" width="1.19" height="16.74"/><path class="cls-3" d="M243.55,79.6l-1.65-.43c-.72-.18-1.54-.39-1.64-.43-2-.61-3-1.68-3-3.19,0-1.9,1.75-3.28,4.17-3.28,1.82-.07,3.59,.61,4.91,1.87l.15,.15,.55-1.13-.09-.08c-1.53-1.3-3.49-1.99-5.5-1.93-3.1,0-5.35,1.86-5.35,4.45,0,3.12,2.39,3.79,6,4.81l1.21,.35c2.05,.6,3,1.6,3,3.16,0,2-1.84,3.38-4.48,3.38-2.05,.06-4.04-.7-5.52-2.12l-.14-.13-.58,1.07,.09,.08c1.69,1.48,3.87,2.27,6.12,2.22,3.3,0,5.7-1.92,5.7-4.59-.03-2.07-1.32-3.45-3.95-4.23Z"/><path class="cls-3" d="M262.03,85.09c-1.27,1.45-3.12,2.28-5.05,2.26-3.89,0-6.5-3.06-6.5-7.65s2.55-7.46,6.5-7.46c1.9-.03,3.72,.76,5,2.16l.13,.14,.1-.16c.17-.27,.33-.54,.47-.83l.05-.1-.08-.08c-1.51-1.47-3.54-2.28-5.65-2.24-4.54,0-7.71,3.53-7.71,8.62s3.16,8.69,7.69,8.69c2.15,.03,4.22-.82,5.72-2.37l.08-.08-.59-1.05-.16,.15Z"/><rect class="cls-3" x="265.63" y="71.41" width="1.19" height="16.74"/><path class="cls-3" d="M276.67,71.41h-5.84v16.74h1.2v-6.84h4.48c3.77,0,6.2-2,6.2-5s-2.32-4.9-6.04-4.9Zm-.05,1.12c3.08,0,4.92,1.42,4.92,3.83s-2,3.84-5,3.84h-4.51v-7.67h4.59Z"/><polygon class="cls-3" points="285.94 71.41 284.75 71.41 284.75 88.16 295.18 88.16 295.18 87.04 285.94 87.04 285.94 71.41"/><polygon class="cls-3" points="298.95 80.26 308.31 80.26 308.31 79.12 298.95 79.12 298.95 72.53 308.96 72.53 308.96 71.41 297.76 71.41 297.76 88.16 309.03 88.16 309.03 87.04 298.95 87.04 298.95 80.26"/><path class="cls-3" d="M318.31,79.6l-1.66-.43c-.71-.18-1.53-.39-1.63-.43-2-.61-3-1.68-3-3.19,0-1.9,1.75-3.28,4.17-3.28,1.82-.07,3.59,.61,4.91,1.87l.15,.15,.55-1.13-.09-.08c-1.53-1.3-3.49-1.99-5.5-1.93-3.1,0-5.36,1.86-5.36,4.45,0,3.12,2.39,3.79,6,4.81l1.21,.35c2.05,.6,3,1.6,3,3.16,0,2-1.84,3.38-4.48,3.38-2.05,.06-4.04-.7-5.52-2.12l-.14-.13-.58,1.07,.09,.08c1.69,1.48,3.87,2.27,6.12,2.22,3.3,0,5.7-1.92,5.7-4.59-.02-2.07-1.31-3.45-3.94-4.23Z"/><polygon class="cls-3" points="335.68 79.14 325.61 79.14 325.61 71.41 324.43 71.41 324.43 88.16 325.61 88.16 325.61 80.26 335.68 80.26 335.68 88.16 336.87 88.16 336.87 71.41 335.68 71.41 335.68 79.14"/><rect class="cls-3" x="340.89" y="71.41" width="1.19" height="16.74"/><path class="cls-3" d="M351.93,71.41h-5.84v16.74h1.19v-6.84h4.48c3.77,0,6.2-2,6.2-5s-2.31-4.9-6.03-4.9Zm-4.65,1.12h4.6c3.08,0,4.92,1.42,4.92,3.83s-2,3.84-5,3.84h-4.53v-7.67Z"/></g></g></svg>