<svg id="ehd-logo" data-name="EHD Logo" viewBox="0 0 395.13 97.21"><defs><style>.cls-1{fill:#95c93f;}.cls-2{fill:#4b4b4d;}</style></defs><title>logo-emotionally-healthy-discipleship</title><path class="cls-1" d="M-568,410.4c-.35,2.33-.14,2-.37,3.09-.65,3.28,3.43,5.66,4.07,6a51.4,51.4,0,0,1,8.42,1.8c3.17,1.4,13.65,8.42,13.65,8.42a125.54,125.54,0,0,0-14-6c.45,1.19,1,2.64,1.47,3.77a14.2,14.2,0,0,1,.85,5.2,29,29,0,0,0-2.84-5.58,37,37,0,0,0-3.8-4.37h-.22a37.12,37.12,0,0,0-4.65.33c2.76,2.72,5.54,5.65,6.45,7.22a38.42,38.42,0,0,1,3.65,9.45,48.46,48.46,0,0,0-7.87-9,44.53,44.53,0,0,0-5.88,3.28c-3.14,2.2-6.79,8-6.79,8s1.37-5.93,3.57-8.32c1.68-1.84,3.9-4.76,4.85-6a64.24,64.24,0,0,0-7-3.79,39.43,39.43,0,0,0-2.43,5.77,29.56,29.56,0,0,0-1,6.42,14.53,14.53,0,0,1-.86-5.39c.1-1.51.19-3.49.25-4.91a40.13,40.13,0,0,0-6.15,4c-2.73,2.55-13.44,4-13.44,4s7-2.31,10.28-5.57c1.29-1.29,3.51-3.24,5.72-5.14a47.33,47.33,0,0,0-6.15.3c-6,.73-14.69,5.62-14.69,5.62s6.65-5.23,10.54-7.53c1.6-1,5.61-2.2,9.11-3.18a26.92,26.92,0,0,0,5.9-3.66c1.68-1.36,2.4-1.29,3.37-4.24H-617a44.93,44.93,0,0,0,44.59,39.45,45,45,0,0,0,44.61-39.45Z" transform="translate(621.03 -356.3)"/><polygon class="cls-1" points="46.92 63.25 46.78 63.25 46.83 63.36 46.92 63.25"/><path class="cls-1" d="M-572.17,398.6a44.71,44.71,0,0,0-7.48-4.25c-4.75-2-13.18-2.15-13.18-2.15s7.11-1,11-1c1.91,0,6.59,1.15,9.84,2a42,42,0,0,0-.63-6.2,27.56,27.56,0,0,0-3.94-1.9c-2.77-1.05-7.95-.78-7.95-.78s4.15-1.32,6.44-1a40.9,40.9,0,0,1,4.85.95c-.19-.71-.4-1.42-.64-2.11a20.58,20.58,0,0,1-1.11-6.94s1.85.63,4.41,5.71a30.15,30.15,0,0,1,2.4,6.68c1.37-1.19,2.92-2.52,3.93-3.28,2.17-1.65,6.78-3.19,6.78-3.19s-4.93,3.06-7.08,5.6a29.68,29.68,0,0,0-3,4.35,44,44,0,0,1,.39,5.24,52.34,52.34,0,0,1,7.86-3.06c2.9-.47,13.62-.29,13.62-.29s-13.1,1.44-16.42,3.59a33.9,33.9,0,0,0-5.2,4.25c-.08,1.21-.21,2.39-.37,3.56h40.19A45,45,0,0,0-572.43,360a44.94,44.94,0,0,0-44.93,44.45h44.48C-572.56,402.52-572.31,400.57-572.17,398.6Zm-1.52-9.57s-4.08-.08-5.76-.82c0,0,3.66,2,5.72,1.73,0,0-5,3.56-10.62-2.19C-584.35,387.75-578.13,382.24-573.69,389Zm10.51,3.78s3.14-4.38,5.19-5.66c0,0-4.9,2.5-6.15,4.94,0,0-.14-8.11,10.31-9.92C-553.83,382.17-552.48,393-563.18,392.81Zm3.92,5.76s4-.59,5.77-.14c0,0-3.91-1.36-5.88-.76,0,0,4.33-4.3,10.75.43C-548.62,398.1-553.81,404.49-559.26,398.57Zm24.16.86s-8.31,5.68-12.64-3.15c0,0,4.9.71,6.81,1.84,0,0-4.1-2.94-6.62-2.93C-547.55,395.19-541,391.65-535.1,399.43ZM-553,391.62s3.73-4.17,6-5.25c0,0-5.33,2-6.9,4.4,0,0,.78-8.39,11.76-9.06C-542.13,381.71-542,393.07-553,391.62Zm5.1-18.71s-.11,9.3-9.07,7.88c0,0,3.13-3.33,5-4.17,0,0-4.4,1.54-5.73,3.45C-557.68,380.07-556.87,373.23-547.88,372.91Zm-11.33-4.47s4.67,12.06-7.66,14.87c0,0,2.34-5.92,4.32-8,0,0-4.9,4.26-5.63,7.41C-568.18,382.75-570.66,373.5-559.21,368.44Zm-10.28-3.32s5.2,6.32-1.65,10.45c0,0,.23-4,1-5.64,0,0-2.09,3.53-1.9,5.57C-572,375.5-575.36,370.44-569.49,365.12Zm-7,16.63s-4.21-4.25-5.22-6.74c0,0,1.8,5.83,4.24,7.66,0,0-8.9-1.38-8.9-13.15C-586.41,369.52-574.26,370.09-576.53,381.75Zm-11.25-3.36s-3.18-2.39-4.09-3.94c0,0,1.76,3.67,3.54,4.64,0,0-6,0-7.14-7.8C-595.47,371.29-587.41,370.49-587.78,378.39Zm2.14,10.41s-4.47-3.11-5.8-5.16c0,0,2.6,4.91,5.09,6.14,0,0-8.21.26-10.18-10.28C-596.53,379.5-585.56,378-585.64,388.8Zm-8-.57c-2.15-1.3-7.17-.9-7.17-.9,2.22,0,6.76,1.93,6.76,1.93-8.23,5.32-12.4-3.81-12.4-3.81C-597.44,381.83-593.65,388.23-593.65,388.23Zm-13.56,10.18c6.72-8.89,14.24-4.84,14.24-4.84-2.89,0-7.58,3.36-7.58,3.36,2.18-1.31,7.79-2.12,7.79-2.12C-597.7,404.92-607.21,398.41-607.21,398.41Zm15,.14s4.85-8.11,12-2.28c0,0-4.46,1.32-6.53,1.11,0,0,4.66.9,6.8-.1C-580,397.28-584.19,402.87-592.26,398.55Z" transform="translate(621.03 -356.3)"/><path class="cls-1" d="M-572.43,453.51a48.65,48.65,0,0,1-48.6-48.6,48.66,48.66,0,0,1,48.6-48.61,48.66,48.66,0,0,1,48.61,48.61A48.65,48.65,0,0,1-572.43,453.51Zm0-95.21A46.66,46.66,0,0,0-619,404.91a46.66,46.66,0,0,0,46.61,46.61,46.66,46.66,0,0,0,46.61-46.61A46.65,46.65,0,0,0-572.43,358.3Z" transform="translate(621.03 -356.3)"/><path class="cls-2" d="M-490.09,409.48h-20a6.64,6.64,0,0,0,7,5.61,9.43,9.43,0,0,0,6.95-2.94l4.65,4.12a14.31,14.31,0,0,1-11.71,5.35c-8.61,0-15-6.05-15-14.82v-.1c0-8.19,5.83-14.93,14.18-14.93,9.57,0,14,7.44,14,15.57v.1C-490,408.25-490,408.73-490.09,409.48Zm-13.85-11.18c-3.37,0-5.57,2.41-6.21,6.1h12.25C-498.38,400.76-500.52,398.3-503.94,398.3Z" transform="translate(621.03 -356.3)"/><path class="cls-2" d="M-451,421V405c0-3.86-1.71-5.84-4.76-5.84s-4.92,2-4.92,5.84v16h-8.13V405c0-3.86-1.71-5.84-4.76-5.84s-4.92,2-4.92,5.84v16h-8.13V392.31h8.13v4.06c1.87-2.4,4.33-4.6,8.45-4.6,3.74,0,6.58,1.66,8.07,4.55a11.83,11.83,0,0,1,9.42-4.55c6,0,9.68,3.64,9.68,10.54V421Z" transform="translate(621.03 -356.3)"/><path class="cls-2" d="M-424.4,421.62c-8.88,0-15.46-6.58-15.46-14.82v-.1c0-8.24,6.63-14.93,15.56-14.93s15.46,6.58,15.46,14.82v.11C-408.84,414.93-415.47,421.62-424.4,421.62Zm7.54-14.92a7.62,7.62,0,0,0-7.54-7.92c-4.65,0-7.44,3.58-7.44,7.81v.11a7.62,7.62,0,0,0,7.54,7.91c4.66,0,7.44-3.58,7.44-7.81Z" transform="translate(621.03 -356.3)"/><path class="cls-2" d="M-395.95,421.46c-5,0-8.34-2-8.34-8.61V399.26h-3.42v-6.95h3.42V385h8.13v7.33h6.74v6.95h-6.74v12.25c0,1.87.8,2.78,2.62,2.78a8.26,8.26,0,0,0,4-1v6.53A12,12,0,0,1-395.95,421.46Z" transform="translate(621.03 -356.3)"/><path class="cls-2" d="M-385.94,389.15v-7.22h8.56v7.22Zm.21,31.83V392.31h8.13V421Z" transform="translate(621.03 -356.3)"/><path class="cls-2" d="M-358.56,421.62c-8.88,0-15.45-6.58-15.45-14.82v-.1c0-8.24,6.63-14.93,15.56-14.93S-343,398.35-343,406.59v.11C-343,414.93-349.63,421.62-358.56,421.62ZM-351,406.7a7.62,7.62,0,0,0-7.54-7.92c-4.65,0-7.43,3.58-7.43,7.81v.11a7.62,7.62,0,0,0,7.54,7.91c4.65,0,7.43-3.58,7.43-7.81Z" transform="translate(621.03 -356.3)"/><path class="cls-2" d="M-321.65,421V405c0-3.86-1.82-5.84-4.92-5.84s-5.08,2-5.08,5.84v16h-8.13V392.31h8.13v4.06c1.87-2.4,4.27-4.6,8.39-4.6,6.16,0,9.74,4.07,9.74,10.65V421Z" transform="translate(621.03 -356.3)"/><path class="cls-2" d="M-292.34,421v-3.11a11,11,0,0,1-8.66,3.64c-5.41,0-9.85-3.11-9.85-8.77v-.11c0-6.25,4.77-9.14,11.56-9.14a20.45,20.45,0,0,1,7,1.17v-.48c0-3.37-2.08-5.24-6.15-5.24a21.12,21.12,0,0,0-7.91,1.55l-2-6.2a25.25,25.25,0,0,1,11.12-2.3c8.88,0,12.78,4.6,12.78,12.35V421Zm.16-11.56a12.64,12.64,0,0,0-5.19-1.07c-3.47,0-5.61,1.4-5.61,4v.11c0,2.19,1.82,3.48,4.44,3.48,3.79,0,6.36-2.09,6.36-5Z" transform="translate(621.03 -356.3)"/><path class="cls-2" d="M-279.77,421V381.93h8.13V421Z" transform="translate(621.03 -356.3)"/><path class="cls-2" d="M-266.29,421V381.93h8.13V421Z" transform="translate(621.03 -356.3)"/><path class="cls-2" d="M-236.93,421.67c-2.19,5.83-4.54,8-9.41,8a13.39,13.39,0,0,1-7.22-2l2.73-5.88a7.38,7.38,0,0,0,3.47,1.12,2.71,2.71,0,0,0,2.84-1.87l-11.23-28.77h8.61l6.53,19.52,6.25-19.52h8.45Z" transform="translate(621.03 -356.3)"/><polygon class="cls-2" points="114.45 79.14 104.38 79.14 104.38 71.41 103.2 71.41 103.2 88.16 104.38 88.16 104.38 80.26 114.45 80.26 114.45 88.16 115.64 88.16 115.64 71.41 114.45 71.41 114.45 79.14"/><polygon class="cls-2" points="120.85 80.26 130.21 80.26 130.21 79.12 120.85 79.12 120.85 72.53 130.86 72.53 130.86 71.41 119.66 71.41 119.66 88.16 130.93 88.16 130.93 87.04 120.85 87.04 120.85 80.26"/><path class="cls-2" d="M-479.07,427.67h-1.16l-7.28,16.78h1.24l2.09-4.87h9l2.09,4.87h1.28L-479,427.76Zm-.6,1.23,1,2.53,3,7.06h-8l3.05-7.14Z" transform="translate(621.03 -356.3)"/><polygon class="cls-2" points="152.98 71.41 151.8 71.41 151.8 88.16 162.22 88.16 162.22 87.04 152.98 87.04 152.98 71.41"/><polygon class="cls-2" points="161.28 72.53 167.32 72.53 167.32 88.16 168.51 88.16 168.51 72.53 174.54 72.53 174.54 71.41 161.28 71.41 161.28 72.53"/><polygon class="cls-2" points="188.47 79.14 178.4 79.14 178.4 71.41 177.21 71.41 177.21 88.16 178.4 88.16 178.4 80.26 188.47 80.26 188.47 88.16 189.66 88.16 189.66 71.41 188.47 71.41 188.47 79.14"/><polygon class="cls-2" points="200.08 78.92 199.16 80.4 198.18 78.83 193.25 71.48 193.21 71.41 191.77 71.44 198.55 81.43 198.55 88.16 199.74 88.16 199.74 81.43 206.51 71.44 205.1 71.41 200.08 78.92"/><path class="cls-2" d="M-399.85,427.71h-5.21v16.74h5.21c5,0,8.34-3.38,8.34-8.45S-394.86,427.71-399.85,427.71Zm0,15.63h-4V428.83h4c4.26,0,7.12,2.89,7.12,7.22S-395.59,443.34-399.85,443.34Z" transform="translate(621.03 -356.3)"/><rect class="cls-2" x="232.17" y="71.41" width="1.19" height="16.74"/><path class="cls-2" d="M-377.48,435.9l-1.65-.43c-.72-.18-1.54-.39-1.64-.43-2-.61-3-1.68-3-3.19,0-1.9,1.75-3.28,4.17-3.28a6.73,6.73,0,0,1,4.91,1.87l.15.15.55-1.13-.09-.08a8.09,8.09,0,0,0-5.5-1.93c-3.1,0-5.35,1.86-5.35,4.45,0,3.12,2.39,3.79,6,4.81l1.21.35c2.05.6,3,1.6,3,3.16,0,2-1.84,3.38-4.48,3.38a7.67,7.67,0,0,1-5.52-2.12l-.14-.13-.58,1.07.09.08a9,9,0,0,0,6.12,2.22c3.3,0,5.7-1.92,5.7-4.59C-373.56,438.06-374.85,436.68-377.48,435.9Z" transform="translate(621.03 -356.3)"/><path class="cls-2" d="M-359,441.39a6.62,6.62,0,0,1-5.05,2.26c-3.89,0-6.5-3.06-6.5-7.65s2.55-7.46,6.5-7.46a6.66,6.66,0,0,1,5,2.16l.13.14.1-.16a7.68,7.68,0,0,0,.47-.83l.05-.1-.08-.08a7.86,7.86,0,0,0-5.65-2.24c-4.54,0-7.71,3.53-7.71,8.62s3.16,8.69,7.69,8.69a7.79,7.79,0,0,0,5.72-2.37l.08-.08-.59-1.05Z" transform="translate(621.03 -356.3)"/><rect class="cls-2" x="265.63" y="71.41" width="1.19" height="16.74"/><path class="cls-2" d="M-344.36,427.71h-5.84v16.74H-349v-6.84h4.48c3.77,0,6.2-2,6.2-5S-340.64,427.71-344.36,427.71Zm-.05,1.12c3.08,0,4.92,1.42,4.92,3.83s-2,3.84-5,3.84H-349v-7.67Z" transform="translate(621.03 -356.3)"/><polygon class="cls-2" points="285.94 71.41 284.75 71.41 284.75 88.16 295.18 88.16 295.18 87.04 285.94 87.04 285.94 71.41"/><polygon class="cls-2" points="298.95 80.26 308.31 80.26 308.31 79.12 298.95 79.12 298.95 72.53 308.96 72.53 308.96 71.41 297.76 71.41 297.76 88.16 309.03 88.16 309.03 87.04 298.95 87.04 298.95 80.26"/><path class="cls-2" d="M-302.72,435.9l-1.66-.43c-.71-.18-1.53-.39-1.63-.43-2-.61-3-1.68-3-3.19,0-1.9,1.75-3.28,4.17-3.28a6.73,6.73,0,0,1,4.91,1.87l.15.15.55-1.13-.09-.08a8.09,8.09,0,0,0-5.5-1.93c-3.1,0-5.36,1.86-5.36,4.45,0,3.12,2.39,3.79,6,4.81l1.21.35c2.05.6,3,1.6,3,3.16,0,2-1.84,3.38-4.48,3.38a7.66,7.66,0,0,1-5.52-2.12l-.14-.13-.58,1.07.09.08a9,9,0,0,0,6.12,2.22c3.3,0,5.7-1.92,5.7-4.59C-298.8,438.06-300.09,436.68-302.72,435.9Z" transform="translate(621.03 -356.3)"/><polygon class="cls-2" points="335.68 79.14 325.61 79.14 325.61 71.41 324.43 71.41 324.43 88.16 325.61 88.16 325.61 80.26 335.68 80.26 335.68 88.16 336.87 88.16 336.87 71.41 335.68 71.41 335.68 79.14"/><rect class="cls-2" x="340.89" y="71.41" width="1.19" height="16.74"/><path class="cls-2" d="M-269.1,427.71h-5.84v16.74h1.19v-6.84h4.48c3.77,0,6.2-2,6.2-5S-265.38,427.71-269.1,427.71Zm-4.65,1.12h4.6c3.08,0,4.92,1.42,4.92,3.83s-2,3.84-5,3.84h-4.53Z" transform="translate(621.03 -356.3)"/></svg>