<svg xmlns="http://www.w3.org/2000/svg" xmlns:xlink="http://www.w3.org/1999/xlink" viewBox="0 0 537.95 608.89"><defs><style>.cls-1{font-family:Lato-Regular, Lato;font-size:12.54px;}.cls-2{letter-spacing:-.09em;}.cls-3{fill:url(#radial-gradient-7);}.cls-3,.cls-4,.cls-5,.cls-6,.cls-7{mix-blend-mode:multiply;}.cls-4{fill:url(#radial-gradient-4);}.cls-8,.cls-9{fill:#fff;}.cls-8,.cls-10{font-family:Avenir-Black, Avenir;font-size:11.49px;}.cls-11{mask:url(#mask);}.cls-12,.cls-13{fill:#005581;}.cls-14{fill:#010101;}.cls-15{fill:#e6e6e6;}.cls-16,.cls-17{fill:#f78e1e;}.cls-18{fill:#6b6868;}.cls-19{fill:#989696;}.cls-20{fill:#999;}.cls-21{fill:#a19e9f;}.cls-22{fill:#908e8e;}.cls-23{fill:#bababa;}.cls-24{fill:#302e2e;}.cls-25{fill:#8e8e8e;}.cls-26{fill:#a9a7a8;}.cls-27{fill:#b2b1b1;}.cls-28{fill:#bbbaba;}.cls-29{fill:#a4a4a4;}.cls-30{fill:#d0d0d0;}.cls-31{fill:#cfcece;}.cls-32{fill:#dbdbdb;}.cls-33{fill:#d9d9d9;}.cls-34{fill:#afafaf;}.cls-35{fill:#c5c4c4;}.cls-36{fill:#c5c5c5;}.cls-37{fill:#121212;}.cls-38{fill:#161616;}.cls-39{fill:#252423;}.cls-40{fill:#1f1e1e;}.cls-41{fill:#212121;}.cls-42{fill:#0b0b0b;}.cls-43{fill:#403e3e;}.cls-44{fill:#424242;}.cls-45{fill:#373737;}.cls-46{fill:#191818;}.cls-47{fill:#0a0a0a;}.cls-48{fill:#807e7e;}.cls-49{fill:#464443;}.cls-50{fill:#6d6d6d;}.cls-51{fill:#888686;}.cls-52{fill:#6d6e71;}.cls-53{fill:#646161;}.cls-54{fill:#626262;}.cls-55{fill:#2c2c2c;}.cls-56{fill:#61c1d8;}.cls-57{fill:#2a2929;}.cls-58{fill:#3b3938;}.cls-59{fill:#353433;}.cls-60{fill:#585555;}.cls-61{fill:#575757;}.cls-62{fill:#838383;}.cls-63{fill:#726f6f;}.cls-64{fill:#4c4949;}.cls-65{fill:#467698;}.cls-66{fill:#797676;}.cls-67{fill:#5e5b5b;}.cls-68{fill:#524f4f;}.cls-69{fill:#787878;}.cls-70{fill:#4d4d4d;}.cls-71,.cls-72{fill:#4da4be;}.cls-73{fill:none;stroke:#4e4e4e;stroke-width:.84px;}.cls-74{letter-spacing:-.05em;}.cls-75{fill:url(#radial-gradient-8);}.cls-75,.cls-76,.cls-77,.cls-78{mix-blend-mode:color-burn;}.cls-76{fill:url(#radial-gradient-5);}.cls-77{fill:url(#radial-gradient-2);}.cls-5{fill:#989898;}.cls-79{fill:url(#radial-gradient-12);}.cls-80{fill:#58595b;font-family:Avenir-Medium, Avenir;font-size:12px;}.cls-78{fill:url(#radial-gradient-11);}.cls-13,.cls-72{font-family:Avenir-Heavy, Avenir;font-size:13.35px;}.cls-81{fill:url(#radial-gradient-6);}.cls-82{fill:url(#radial-gradient-3);}.cls-83{fill:url(#radial-gradient-9);}.cls-6{fill:url(#radial-gradient);}.cls-7{fill:url(#radial-gradient-10);}.cls-17{filter:url(#drop-shadow-1);}.cls-84{isolation:isolate;}.cls-85{mask:url(#mask-3);}.cls-86{mask:url(#mask-2);}.cls-87{mask:url(#mask-5);}.cls-88{mask:url(#mask-4);}.cls-89{mask:url(#mask-1);}.cls-90{mask:url(#mask-7);}.cls-91{mask:url(#mask-6);}</style><mask id="mask" x="258.37" y="0" width="103.63" height="103.62" maskUnits="userSpaceOnUse"><g><path class="cls-14" d="M348.15,58.74c0-24.79-20.1-44.89-44.89-44.89s-44.89,20.1-44.89,44.89,20.1,44.89,44.9,44.88c24.79,0,44.89-20.1,44.89-44.88Z"/><path class="cls-47" d="M348.6,58.29c0-24.79-20.1-44.89-44.89-44.89-24.79,0-44.89,20.1-44.89,44.89,0,24.79,20.1,44.89,44.9,44.88,24.79,0,44.89-20.1,44.89-44.88Z"/><path class="cls-37" d="M349.05,57.85c0-24.79-20.1-44.89-44.89-44.89-24.79,0-44.89,20.1-44.89,44.89,0,24.79,20.1,44.89,44.89,44.88,24.79,0,44.89-20.1,44.89-44.88Z"/><path class="cls-46" d="M349.49,57.4c0-24.79-20.1-44.89-44.89-44.89-24.79,0-44.89,20.1-44.89,44.89,0,24.79,20.1,44.89,44.89,44.88,24.79,0,44.89-20.1,44.89-44.88Z"/><path class="cls-40" d="M349.94,56.95c0-24.79-20.1-44.89-44.89-44.89-24.79,0-44.89,20.1-44.89,44.89,0,24.79,20.1,44.89,44.89,44.89,24.79,0,44.89-20.1,44.89-44.89Z"/><path class="cls-39" d="M350.39,56.51c0-24.79-20.1-44.89-44.89-44.89-24.79,0-44.89,20.1-44.89,44.89,0,24.79,20.1,44.89,44.89,44.89,24.79,0,44.89-20.1,44.89-44.89Z"/><path class="cls-57" d="M350.83,56.06c0-24.79-20.1-44.89-44.89-44.89-24.79,0-44.89,20.1-44.89,44.89,0,24.79,20.1,44.89,44.89,44.89,24.79,0,44.89-20.1,44.89-44.89Z"/><path class="cls-24" d="M351.28,55.61c0-24.79-20.1-44.89-44.89-44.89-24.79,0-44.89,20.1-44.89,44.89,0,24.79,20.1,44.89,44.89,44.89,24.79,0,44.89-20.1,44.89-44.89Z"/><path class="cls-59" d="M351.73,55.17c0-24.79-20.1-44.89-44.89-44.89-24.79,0-44.89,20.1-44.89,44.89,0,24.79,20.1,44.89,44.89,44.89,24.79,0,44.89-20.1,44.89-44.89Z"/><path class="cls-58" d="M352.17,54.72c0-24.79-20.1-44.89-44.89-44.89-24.79,0-44.89,20.1-44.89,44.89,0,24.79,20.1,44.89,44.89,44.89,24.79,0,44.89-20.1,44.89-44.89Z"/><path class="cls-43" d="M352.62,54.27c0-24.79-20.1-44.89-44.89-44.89-24.79,0-44.89,20.1-44.89,44.89,0,24.79,20.1,44.89,44.89,44.89,24.79,0,44.89-20.1,44.89-44.89Z"/><path class="cls-49" d="M353.07,53.83c0-24.79-20.1-44.89-44.89-44.89-24.79,0-44.89,20.1-44.89,44.89,0,24.79,20.1,44.89,44.89,44.89,24.79,0,44.89-20.1,44.89-44.89Z"/><path class="cls-64" d="M353.51,53.38c0-24.79-20.1-44.89-44.89-44.89-24.79,0-44.89,20.1-44.89,44.89,0,24.79,20.1,44.89,44.89,44.89,24.79,0,44.89-20.1,44.89-44.89Z"/><path class="cls-68" d="M353.96,52.93c0-24.79-20.1-44.89-44.89-44.89-24.79,0-44.89,20.1-44.89,44.89,0,24.79,20.1,44.89,44.89,44.89,24.79,0,44.89-20.1,44.89-44.89Z"/><path class="cls-60" d="M354.41,52.48c0-24.79-20.1-44.89-44.89-44.89-24.79,0-44.89,20.1-44.89,44.89,0,24.79,20.1,44.89,44.89,44.89,24.79,0,44.89-20.1,44.89-44.89Z"/><path class="cls-67" d="M354.85,52.04c0-24.79-20.1-44.89-44.89-44.89-24.79,0-44.89,20.1-44.89,44.89,0,24.79,20.1,44.89,44.89,44.89,24.79,0,44.89-20.1,44.89-44.89Z"/><path class="cls-53" d="M355.3,51.59c0-24.79-20.1-44.89-44.89-44.89-24.79,0-44.89,20.1-44.89,44.89,0,24.79,20.1,44.89,44.89,44.89,24.79,0,44.89-20.1,44.89-44.89Z"/><path class="cls-18" d="M355.75,51.14c0-24.79-20.1-44.89-44.89-44.89-24.79,0-44.89,20.1-44.89,44.89,0,24.79,20.1,44.89,44.89,44.89,24.79,0,44.89-20.1,44.89-44.89Z"/><path class="cls-63" d="M356.19,50.7c0-24.79-20.1-44.89-44.89-44.89-24.79,0-44.89,20.1-44.89,44.89,0,24.79,20.1,44.89,44.89,44.89,24.79,0,44.89-20.1,44.89-44.89Z"/><path class="cls-66" d="M356.64,50.25c0-24.79-20.1-44.89-44.89-44.89-24.79,0-44.89,20.09-44.89,44.89,0,24.79,20.1,44.89,44.89,44.89,24.79,0,44.89-20.1,44.89-44.89Z"/><path class="cls-48" d="M357.09,49.8c0-24.79-20.1-44.89-44.89-44.89-24.79,0-44.89,20.09-44.89,44.89,0,24.79,20.1,44.89,44.89,44.89,24.79,0,44.89-20.1,44.89-44.89Z"/><path class="cls-51" d="M357.53,49.36c0-24.79-20.1-44.89-44.89-44.89-24.79,0-44.89,20.09-44.89,44.89,0,24.79,20.1,44.89,44.89,44.89,24.79,0,44.89-20.1,44.89-44.89Z"/><path class="cls-22" d="M357.98,48.91c0-24.79-20.1-44.89-44.89-44.89-24.79,0-44.89,20.09-44.89,44.89,0,24.79,20.1,44.89,44.89,44.89,24.79,0,44.89-20.1,44.89-44.89Z"/><path class="cls-19" d="M358.43,48.46c0-24.79-20.1-44.89-44.89-44.89-24.79,0-44.89,20.09-44.89,44.89,0,24.79,20.1,44.89,44.89,44.89,24.79,0,44.89-20.1,44.89-44.89Z"/><path class="cls-21" d="M358.87,48.02c0-24.79-20.1-44.89-44.89-44.89-24.79,0-44.89,20.09-44.89,44.89,0,24.79,20.1,44.89,44.89,44.89,24.79,0,44.89-20.1,44.89-44.89Z"/><path class="cls-26" d="M359.32,47.57c0-24.79-20.1-44.89-44.89-44.89-24.79,0-44.89,20.09-44.89,44.89,0,24.79,20.1,44.89,44.89,44.89,24.79,0,44.89-20.1,44.89-44.89Z"/><path class="cls-27" d="M359.77,47.12c0-24.79-20.1-44.89-44.89-44.89-24.79,0-44.89,20.09-44.89,44.89,0,24.79,20.1,44.89,44.89,44.89,24.79,0,44.89-20.1,44.89-44.89Z"/><path class="cls-28" d="M360.21,46.68c0-24.79-20.1-44.89-44.89-44.89-24.79,0-44.89,20.09-44.89,44.89,0,24.79,20.1,44.89,44.89,44.89,24.79,0,44.89-20.1,44.89-44.89Z"/><path class="cls-35" d="M360.66,46.23c0-24.79-20.1-44.89-44.89-44.89-24.79,0-44.89,20.09-44.89,44.89,0,24.79,20.1,44.89,44.89,44.89,24.79,0,44.89-20.1,44.89-44.89Z"/><path class="cls-31" d="M361.11,45.78c0-24.79-20.1-44.89-44.89-44.89-24.79,0-44.89,20.09-44.89,44.89,0,24.79,20.1,44.89,44.89,44.89,24.79,0,44.89-20.1,44.89-44.89Z"/><path class="cls-33" d="M361.55,45.34c0-24.79-20.1-44.89-44.89-44.89-24.79,0-44.89,20.09-44.89,44.89,0,24.79,20.1,44.89,44.89,44.89,24.79,0,44.89-20.1,44.89-44.89Z"/><path class="cls-15" d="M362,44.89C362,20.1,341.9,0,317.11,0c-24.79,0-44.89,20.09-44.89,44.89,0,24.79,20.1,44.89,44.89,44.89,24.79,0,44.89-20.1,44.89-44.89Z"/></g></mask><radialGradient id="radial-gradient" cx=".6" cy="-362.28" fx=".6" fy="-362.28" r="80.67" gradientTransform="translate(328.88 395.76) rotate(-180) scale(1 -1)" gradientUnits="userSpaceOnUse"><stop offset=".35" stop-color="#595a5a"/><stop offset="1" stop-color="#fff"/></radialGradient><radialGradient id="radial-gradient-2" cx="-20.31" cy="-382.35" fx="-20.31" fy="-382.35" r="89.3" gradientTransform="translate(328.88 395.76) rotate(-180) scale(1 -1)" gradientUnits="userSpaceOnUse"><stop offset=".35" stop-color="#fff"/><stop offset="1" stop-color="#b5b5b5"/></radialGradient><mask id="mask-1" x="275.46" y="9.74" width="76.8" height="76.8" maskUnits="userSpaceOnUse"><g><path d="M310.6,86.54c-19.41,0-35.15-15.74-35.15-35.15,0-19.41,15.73-35.15,35.15-35.15,19.41,0,35.15,15.74,35.15,35.14s-15.74,35.15-35.15,35.15Z"/><path class="cls-42" d="M310.91,86.23c-19.41,0-35.15-15.74-35.15-35.15,0-19.41,15.73-35.15,35.15-35.15,19.41,0,35.15,15.74,35.15,35.14,0,19.42-15.74,35.15-35.15,35.15Z"/><path class="cls-38" d="M311.22,85.92c-19.41,0-35.15-15.74-35.15-35.15,0-19.41,15.73-35.15,35.15-35.15,19.41,0,35.15,15.74,35.15,35.14,0,19.42-15.74,35.15-35.15,35.15Z"/><path class="cls-41" d="M311.53,85.61c-19.41,0-35.15-15.74-35.15-35.15,0-19.41,15.73-35.15,35.15-35.15,19.41,0,35.15,15.74,35.15,35.15,0,19.42-15.74,35.15-35.15,35.15Z"/><path class="cls-55" d="M311.84,85.3c-19.41,0-35.15-15.74-35.15-35.15,0-19.41,15.73-35.15,35.15-35.15,19.41,0,35.15,15.74,35.15,35.15,0,19.42-15.74,35.15-35.15,35.15Z"/><path class="cls-45" d="M312.15,84.99c-19.41,0-35.15-15.74-35.15-35.15,0-19.41,15.73-35.15,35.15-35.15,19.41,0,35.15,15.74,35.15,35.15,0,19.41-15.74,35.15-35.15,35.15Z"/><path class="cls-44" d="M312.46,84.68c-19.41,0-35.15-15.74-35.15-35.15,0-19.41,15.73-35.15,35.15-35.15,19.41,0,35.15,15.74,35.15,35.15,0,19.41-15.74,35.15-35.15,35.15Z"/><path class="cls-70" d="M312.77,84.37c-19.41,0-35.15-15.74-35.15-35.15,0-19.41,15.73-35.15,35.15-35.15,19.41,0,35.15,15.74,35.15,35.15,0,19.41-15.74,35.15-35.15,35.15Z"/><path class="cls-61" d="M313.08,84.06c-19.41,0-35.15-15.74-35.15-35.15,0-19.41,15.73-35.15,35.15-35.15,19.41,0,35.15,15.74,35.15,35.15,0,19.41-15.74,35.15-35.15,35.15Z"/><path class="cls-54" d="M313.39,83.75c-19.41,0-35.15-15.74-35.15-35.15,0-19.41,15.73-35.15,35.15-35.15,19.41,0,35.15,15.74,35.15,35.15,0,19.41-15.74,35.15-35.15,35.15Z"/><path class="cls-50" d="M313.7,83.44c-19.41,0-35.15-15.74-35.15-35.15,0-19.41,15.73-35.15,35.15-35.15,19.41,0,35.15,15.74,35.15,35.15,0,19.41-15.74,35.15-35.15,35.15Z"/><path class="cls-69" d="M314.01,83.13c-19.41,0-35.15-15.74-35.15-35.15,0-19.41,15.73-35.15,35.15-35.15,19.41,0,35.15,15.74,35.15,35.15,0,19.41-15.74,35.15-35.15,35.15Z"/><path class="cls-62" d="M314.32,82.82c-19.41,0-35.15-15.74-35.15-35.15,0-19.41,15.73-35.15,35.15-35.15,19.41,0,35.15,15.74,35.15,35.15,0,19.41-15.74,35.15-35.15,35.15Z"/><path class="cls-25" d="M314.63,82.51c-19.41,0-35.15-15.74-35.15-35.15,0-19.41,15.73-35.15,35.15-35.15,19.41,0,35.15,15.74,35.15,35.15,0,19.41-15.74,35.15-35.15,35.15Z"/><path class="cls-20" d="M314.94,82.2c-19.41,0-35.15-15.74-35.15-35.15,0-19.41,15.73-35.15,35.15-35.15,19.41,0,35.15,15.74,35.15,35.15,0,19.41-15.74,35.15-35.15,35.15Z"/><path class="cls-29" d="M315.25,81.89c-19.41,0-35.15-15.74-35.15-35.15,0-19.41,15.73-35.15,35.15-35.15,19.41,0,35.15,15.74,35.15,35.15,0,19.41-15.74,35.15-35.15,35.15Z"/><path class="cls-34" d="M315.56,81.58c-19.41,0-35.15-15.74-35.15-35.15,0-19.41,15.73-35.15,35.15-35.15,19.41,0,35.15,15.74,35.15,35.15,0,19.41-15.74,35.15-35.15,35.15Z"/><path class="cls-23" d="M315.87,81.27c-19.41,0-35.15-15.74-35.15-35.15,0-19.41,15.73-35.15,35.15-35.15,19.41,0,35.15,15.74,35.15,35.15,0,19.41-15.74,35.15-35.15,35.15Z"/><path class="cls-36" d="M316.18,80.96c-19.41,0-35.15-15.73-35.15-35.15,0-19.41,15.73-35.15,35.15-35.15,19.41,0,35.15,15.74,35.15,35.15,0,19.41-15.74,35.15-35.15,35.15Z"/><path class="cls-30" d="M316.49,80.65c-19.41,0-35.15-15.73-35.15-35.15,0-19.41,15.73-35.15,35.15-35.15,19.41,0,35.15,15.74,35.15,35.15,0,19.41-15.74,35.15-35.15,35.15Z"/><path class="cls-32" d="M316.8,80.34c-19.41,0-35.15-15.73-35.15-35.15,0-19.41,15.73-35.15,35.15-35.15,19.41,0,35.15,15.74,35.15,35.15,0,19.41-15.74,35.15-35.15,35.15Z"/><path class="cls-15" d="M317.11,80.03c-19.41,0-35.15-15.73-35.15-35.15s15.73-35.15,35.15-35.15c19.41,0,35.15,15.74,35.15,35.15,0,19.41-15.74,35.15-35.15,35.15Z"/></g></mask><radialGradient id="radial-gradient-3" cx="-13.35" cy="-375.52" fx="-13.35" fy="-375.52" r="69.92" gradientTransform="translate(328.88 395.76) rotate(-180) scale(1 -1)" gradientUnits="userSpaceOnUse"><stop offset=".2" stop-color="#fff"/><stop offset=".59" stop-color="#fcfcfc"/><stop offset=".79" stop-color="#f5f5f5"/><stop offset=".94" stop-color="#e8e8e8"/><stop offset="1" stop-color="#e0e0e0"/></radialGradient><mask id="mask-2" x="28.62" y="134.57" width="103.63" height="103.62" maskUnits="userSpaceOnUse"><g><path class="cls-14" d="M118.4,193.31c0-24.79-20.1-44.89-44.89-44.89s-44.89,20.1-44.89,44.89c0,24.79,20.1,44.89,44.9,44.89,24.79,0,44.89-20.1,44.89-44.89Z"/><path class="cls-47" d="M118.85,192.86c0-24.79-20.1-44.89-44.89-44.89-24.79,0-44.89,20.1-44.89,44.89,0,24.79,20.1,44.89,44.9,44.89,24.79,0,44.89-20.1,44.89-44.89Z"/><path class="cls-37" d="M119.3,192.42c0-24.79-20.1-44.89-44.89-44.89-24.79,0-44.89,20.1-44.89,44.89,0,24.79,20.1,44.89,44.9,44.89,24.79,0,44.89-20.1,44.89-44.89Z"/><path class="cls-46" d="M119.74,191.97c0-24.79-20.1-44.89-44.89-44.89-24.79,0-44.89,20.1-44.89,44.89,0,24.79,20.1,44.89,44.9,44.89,24.79,0,44.89-20.1,44.89-44.89Z"/><path class="cls-40" d="M120.19,191.52c0-24.79-20.1-44.89-44.89-44.89-24.79,0-44.89,20.1-44.89,44.89,0,24.79,20.1,44.89,44.9,44.89,24.79,0,44.89-20.1,44.89-44.89Z"/><path class="cls-39" d="M120.64,191.08c0-24.79-20.1-44.89-44.89-44.89-24.79,0-44.89,20.1-44.89,44.89,0,24.79,20.1,44.89,44.9,44.89,24.79,0,44.89-20.1,44.89-44.89Z"/><path class="cls-57" d="M121.08,190.63c0-24.79-20.1-44.89-44.89-44.89-24.79,0-44.89,20.1-44.89,44.89,0,24.79,20.1,44.89,44.89,44.89,24.79,0,44.89-20.1,44.89-44.89Z"/><path class="cls-24" d="M121.53,190.18c0-24.79-20.1-44.89-44.89-44.89-24.79,0-44.89,20.1-44.89,44.89,0,24.79,20.1,44.89,44.89,44.89,24.79,0,44.89-20.1,44.89-44.89Z"/><path class="cls-59" d="M121.98,189.74c0-24.79-20.1-44.89-44.89-44.89-24.79,0-44.89,20.09-44.89,44.89,0,24.79,20.1,44.89,44.89,44.89,24.79,0,44.89-20.1,44.89-44.89Z"/><path class="cls-58" d="M122.42,189.29c0-24.79-20.1-44.89-44.89-44.89-24.79,0-44.89,20.09-44.89,44.89,0,24.79,20.1,44.89,44.89,44.89,24.79,0,44.89-20.1,44.89-44.89Z"/><path class="cls-43" d="M122.87,188.84c0-24.79-20.1-44.89-44.89-44.89-24.79,0-44.89,20.09-44.89,44.89,0,24.79,20.1,44.89,44.89,44.89,24.79,0,44.89-20.1,44.89-44.89Z"/><path class="cls-49" d="M123.32,188.4c0-24.79-20.1-44.89-44.89-44.89-24.79,0-44.89,20.09-44.89,44.89,0,24.79,20.1,44.89,44.89,44.89,24.79,0,44.89-20.1,44.89-44.89Z"/><path class="cls-64" d="M123.76,187.95c0-24.79-20.1-44.89-44.89-44.89-24.79,0-44.89,20.09-44.89,44.89,0,24.79,20.1,44.89,44.89,44.89,24.79,0,44.89-20.1,44.89-44.89Z"/><path class="cls-68" d="M124.21,187.5c0-24.79-20.1-44.89-44.89-44.89-24.79,0-44.89,20.09-44.89,44.89,0,24.79,20.1,44.89,44.89,44.89,24.79,0,44.89-20.1,44.89-44.89Z"/><path class="cls-60" d="M124.66,187.06c0-24.79-20.1-44.89-44.89-44.89-24.79,0-44.89,20.09-44.89,44.89,0,24.79,20.1,44.89,44.89,44.89,24.79,0,44.89-20.1,44.89-44.89Z"/><path class="cls-67" d="M125.1,186.61c0-24.79-20.1-44.89-44.89-44.89-24.79,0-44.89,20.09-44.89,44.89,0,24.79,20.1,44.89,44.89,44.89,24.79,0,44.89-20.1,44.89-44.89Z"/><path class="cls-53" d="M125.55,186.16c0-24.79-20.1-44.89-44.89-44.89-24.79,0-44.89,20.09-44.89,44.89,0,24.79,20.1,44.89,44.89,44.89,24.79,0,44.89-20.1,44.89-44.89Z"/><path class="cls-18" d="M126,185.71c0-24.79-20.1-44.89-44.89-44.89-24.79,0-44.89,20.09-44.89,44.89,0,24.79,20.1,44.89,44.89,44.89,24.79,0,44.89-20.1,44.89-44.89Z"/><path class="cls-63" d="M126.44,185.27c0-24.79-20.1-44.89-44.89-44.89-24.79,0-44.89,20.09-44.89,44.89,0,24.79,20.1,44.89,44.89,44.89,24.79,0,44.89-20.1,44.89-44.89Z"/><path class="cls-66" d="M126.89,184.82c0-24.79-20.1-44.89-44.89-44.89-24.79,0-44.89,20.09-44.89,44.89,0,24.79,20.1,44.89,44.89,44.89,24.79,0,44.89-20.1,44.89-44.89Z"/><path class="cls-48" d="M127.34,184.37c0-24.79-20.1-44.89-44.89-44.89-24.79,0-44.89,20.09-44.89,44.89,0,24.79,20.1,44.89,44.89,44.89,24.79,0,44.89-20.1,44.89-44.89Z"/><path class="cls-51" d="M127.78,183.93c0-24.79-20.1-44.89-44.89-44.89-24.79,0-44.89,20.09-44.89,44.89,0,24.79,20.1,44.89,44.89,44.89,24.79,0,44.89-20.1,44.89-44.89Z"/><path class="cls-22" d="M128.23,183.48c0-24.79-20.1-44.89-44.89-44.89-24.79,0-44.89,20.09-44.89,44.89,0,24.79,20.1,44.89,44.89,44.89,24.79,0,44.89-20.1,44.89-44.89Z"/><path class="cls-19" d="M128.68,183.03c0-24.79-20.1-44.89-44.89-44.89-24.79,0-44.89,20.09-44.89,44.89,0,24.79,20.1,44.89,44.89,44.89,24.79,0,44.89-20.1,44.89-44.89Z"/><path class="cls-21" d="M129.12,182.59c0-24.79-20.1-44.89-44.89-44.89-24.79,0-44.89,20.09-44.89,44.89,0,24.79,20.1,44.89,44.89,44.89,24.79,0,44.89-20.1,44.89-44.89Z"/><path class="cls-26" d="M129.57,182.14c0-24.79-20.1-44.89-44.89-44.89-24.79,0-44.89,20.09-44.89,44.89,0,24.79,20.1,44.89,44.89,44.89,24.79,0,44.89-20.1,44.89-44.89Z"/><path class="cls-27" d="M130.02,181.69c0-24.79-20.1-44.89-44.89-44.89-24.79,0-44.89,20.09-44.89,44.89,0,24.79,20.1,44.89,44.89,44.89,24.79,0,44.89-20.1,44.89-44.89Z"/><path class="cls-28" d="M130.46,181.25c0-24.79-20.1-44.89-44.89-44.89-24.79,0-44.89,20.09-44.89,44.89,0,24.79,20.1,44.89,44.89,44.89,24.79,0,44.89-20.1,44.89-44.89Z"/><path class="cls-35" d="M130.91,180.8c0-24.79-20.1-44.89-44.89-44.89-24.79,0-44.89,20.09-44.89,44.89,0,24.79,20.1,44.89,44.89,44.89,24.79,0,44.89-20.1,44.89-44.89Z"/><path class="cls-31" d="M131.36,180.35c0-24.79-20.1-44.89-44.89-44.89-24.79,0-44.89,20.09-44.89,44.89,0,24.79,20.1,44.89,44.89,44.89,24.79,0,44.89-20.1,44.89-44.89Z"/><path class="cls-33" d="M131.8,179.91c0-24.79-20.1-44.89-44.89-44.89-24.79,0-44.89,20.09-44.89,44.89,0,24.79,20.1,44.89,44.89,44.89,24.79,0,44.89-20.1,44.89-44.89Z"/><path class="cls-15" d="M132.25,179.46c0-24.79-20.1-44.89-44.89-44.89-24.79,0-44.89,20.09-44.89,44.89,0,24.79,20.1,44.89,44.89,44.89,24.79,0,44.89-20.1,44.89-44.89Z"/></g></mask><radialGradient id="radial-gradient-4" cx="86.32" cy="-371.74" fx="86.32" fy="-371.74" r="80.67" gradientTransform="translate(184.85 539.79) rotate(-180) scale(1 -1)" xlink:href="#radial-gradient"/><radialGradient id="radial-gradient-5" cx="65.4" cy="-391.81" fx="65.4" fy="-391.81" r="89.3" gradientTransform="translate(184.85 539.79) rotate(-180) scale(1 -1)" xlink:href="#radial-gradient-2"/><mask id="mask-3" x="45.71" y="144.31" width="76.8" height="76.8" maskUnits="userSpaceOnUse"><g><path d="M80.85,221.11c-19.41,0-35.15-15.73-35.15-35.15,0-19.42,15.73-35.15,35.15-35.15,19.41,0,35.15,15.74,35.15,35.14s-15.74,35.15-35.16,35.15Z"/><path class="cls-42" d="M81.16,220.8c-19.41,0-35.15-15.73-35.15-35.15,0-19.42,15.73-35.15,35.15-35.15,19.41,0,35.15,15.74,35.15,35.14,0,19.42-15.74,35.15-35.16,35.15Z"/><path class="cls-38" d="M81.47,220.49c-19.41,0-35.15-15.73-35.15-35.15,0-19.41,15.73-35.15,35.15-35.15,19.41,0,35.15,15.74,35.15,35.14,0,19.42-15.74,35.15-35.16,35.15Z"/><path class="cls-41" d="M81.78,220.18c-19.41,0-35.15-15.73-35.15-35.15,0-19.41,15.73-35.15,35.15-35.15,19.41,0,35.15,15.74,35.15,35.15,0,19.42-15.74,35.15-35.15,35.15Z"/><path class="cls-55" d="M82.09,219.87c-19.41,0-35.15-15.73-35.15-35.15,0-19.41,15.73-35.15,35.15-35.15,19.41,0,35.15,15.74,35.15,35.15,0,19.42-15.74,35.15-35.15,35.15Z"/><path class="cls-45" d="M82.4,219.56c-19.41,0-35.15-15.73-35.15-35.15,0-19.41,15.73-35.15,35.15-35.15,19.41,0,35.15,15.74,35.15,35.15,0,19.42-15.74,35.15-35.15,35.15Z"/><path class="cls-44" d="M82.71,219.25c-19.41,0-35.15-15.73-35.15-35.15,0-19.41,15.73-35.15,35.15-35.15,19.41,0,35.15,15.74,35.15,35.15,0,19.42-15.74,35.15-35.15,35.15Z"/><path class="cls-70" d="M83.02,218.94c-19.41,0-35.15-15.73-35.15-35.15,0-19.41,15.73-35.15,35.15-35.15,19.41,0,35.15,15.74,35.15,35.15,0,19.42-15.74,35.15-35.15,35.15Z"/><path class="cls-61" d="M83.33,218.63c-19.41,0-35.15-15.73-35.15-35.15,0-19.41,15.73-35.15,35.15-35.15,19.41,0,35.15,15.74,35.15,35.15,0,19.42-15.74,35.15-35.15,35.15Z"/><path class="cls-54" d="M83.64,218.32c-19.41,0-35.15-15.73-35.15-35.15,0-19.41,15.73-35.15,35.15-35.15,19.41,0,35.15,15.74,35.15,35.15,0,19.42-15.74,35.15-35.15,35.15Z"/><path class="cls-50" d="M83.95,218.01c-19.41,0-35.15-15.73-35.15-35.15,0-19.41,15.73-35.15,35.15-35.15,19.41,0,35.15,15.74,35.15,35.15,0,19.42-15.74,35.15-35.15,35.15Z"/><path class="cls-69" d="M84.26,217.7c-19.41,0-35.15-15.73-35.15-35.15,0-19.41,15.73-35.15,35.15-35.15,19.41,0,35.15,15.74,35.15,35.15,0,19.42-15.74,35.15-35.15,35.15Z"/><path class="cls-62" d="M84.57,217.39c-19.41,0-35.15-15.73-35.15-35.15,0-19.41,15.73-35.15,35.15-35.15,19.41,0,35.15,15.74,35.15,35.15,0,19.42-15.74,35.15-35.15,35.15Z"/><path class="cls-25" d="M84.88,217.08c-19.41,0-35.15-15.73-35.15-35.15,0-19.41,15.73-35.15,35.15-35.15,19.41,0,35.15,15.74,35.15,35.15,0,19.42-15.74,35.15-35.15,35.15Z"/><path class="cls-20" d="M85.19,216.77c-19.41,0-35.15-15.73-35.15-35.15,0-19.41,15.73-35.15,35.15-35.15,19.41,0,35.15,15.74,35.15,35.15,0,19.41-15.74,35.15-35.15,35.15Z"/><path class="cls-29" d="M85.5,216.46c-19.41,0-35.15-15.73-35.15-35.15,0-19.41,15.73-35.15,35.15-35.15,19.41,0,35.15,15.74,35.15,35.15,0,19.41-15.74,35.15-35.15,35.15Z"/><path class="cls-34" d="M85.81,216.16c-19.41,0-35.15-15.73-35.15-35.15,0-19.41,15.73-35.15,35.15-35.15,19.41,0,35.15,15.74,35.15,35.15,0,19.41-15.74,35.15-35.15,35.15Z"/><path class="cls-23" d="M86.12,215.85c-19.41,0-35.15-15.73-35.15-35.15,0-19.41,15.73-35.15,35.15-35.15,19.41,0,35.15,15.74,35.15,35.15,0,19.41-15.74,35.15-35.15,35.15Z"/><path class="cls-36" d="M86.43,215.54c-19.41,0-35.15-15.73-35.15-35.15,0-19.41,15.73-35.15,35.15-35.15,19.41,0,35.15,15.74,35.15,35.15,0,19.41-15.74,35.15-35.15,35.15Z"/><path class="cls-30" d="M86.74,215.23c-19.41,0-35.15-15.73-35.15-35.15,0-19.41,15.73-35.15,35.15-35.15,19.41,0,35.15,15.74,35.15,35.15,0,19.41-15.74,35.15-35.15,35.15Z"/><path class="cls-32" d="M87.05,214.92c-19.41,0-35.15-15.73-35.15-35.15,0-19.41,15.73-35.15,35.15-35.15,19.41,0,35.15,15.74,35.15,35.15,0,19.41-15.74,35.15-35.15,35.15Z"/><path class="cls-15" d="M87.36,214.61c-19.41,0-35.15-15.73-35.15-35.15s15.73-35.15,35.15-35.15c19.41,0,35.15,15.74,35.15,35.15,0,19.41-15.74,35.15-35.15,35.15Z"/></g></mask><radialGradient id="radial-gradient-6" cx="72.37" cy="-384.98" fx="72.37" fy="-384.98" r="69.92" gradientTransform="translate(184.85 539.79) rotate(-180) scale(1 -1)" xlink:href="#radial-gradient-3"/><filter id="drop-shadow-1" filterUnits="userSpaceOnUse"><feOffset dx="-1.66" dy="10.35"/><feGaussianBlur result="blur" stdDeviation="4.14"/><feFlood flood-color="#939598" flood-opacity=".75"/><feComposite in2="blur" operator="in"/><feComposite in="SourceGraphic"/></filter><mask id="mask-4" x="382.3" y="336.29" width="103.63" height="103.62" maskUnits="userSpaceOnUse"><g><path class="cls-14" d="M472.09,395.03c0-24.79-20.1-44.89-44.89-44.89s-44.89,20.09-44.89,44.89,20.1,44.89,44.9,44.88c24.79,0,44.89-20.1,44.89-44.88Z"/><path class="cls-47" d="M472.53,394.58c0-24.79-20.1-44.89-44.89-44.89-24.79,0-44.89,20.09-44.89,44.89,0,24.79,20.1,44.89,44.9,44.88,24.79,0,44.89-20.1,44.89-44.88Z"/><path class="cls-37" d="M472.98,394.14c0-24.79-20.1-44.89-44.89-44.89-24.79,0-44.89,20.09-44.89,44.89,0,24.79,20.1,44.89,44.9,44.88,24.79,0,44.89-20.1,44.89-44.88Z"/><path class="cls-46" d="M473.43,393.69c0-24.79-20.1-44.89-44.89-44.89-24.79,0-44.89,20.09-44.89,44.89,0,24.79,20.1,44.89,44.89,44.88,24.79,0,44.89-20.1,44.89-44.88Z"/><path class="cls-40" d="M473.87,393.24c0-24.79-20.1-44.89-44.89-44.89-24.79,0-44.89,20.09-44.89,44.89,0,24.79,20.1,44.89,44.89,44.88,24.79,0,44.89-20.1,44.89-44.88Z"/><path class="cls-39" d="M474.32,392.8c0-24.79-20.1-44.89-44.89-44.89-24.79,0-44.89,20.09-44.89,44.89,0,24.79,20.1,44.89,44.89,44.88,24.79,0,44.89-20.1,44.89-44.88Z"/><path class="cls-57" d="M474.77,392.35c0-24.79-20.1-44.89-44.89-44.89-24.79,0-44.89,20.09-44.89,44.89,0,24.79,20.1,44.89,44.89,44.88,24.79,0,44.89-20.1,44.89-44.88Z"/><path class="cls-24" d="M475.21,391.9c0-24.79-20.1-44.89-44.89-44.89-24.79,0-44.89,20.09-44.89,44.89,0,24.79,20.1,44.89,44.89,44.88,24.79,0,44.89-20.1,44.89-44.88Z"/><path class="cls-59" d="M475.66,391.46c0-24.79-20.1-44.89-44.89-44.89-24.79,0-44.89,20.09-44.89,44.89,0,24.79,20.1,44.89,44.89,44.88,24.79,0,44.89-20.1,44.89-44.88Z"/><path class="cls-58" d="M476.11,391.01c0-24.79-20.1-44.89-44.89-44.89-24.79,0-44.89,20.09-44.89,44.89,0,24.79,20.1,44.89,44.89,44.88,24.79,0,44.89-20.1,44.89-44.88Z"/><path class="cls-43" d="M476.55,390.56c0-24.79-20.1-44.89-44.89-44.89-24.79,0-44.89,20.09-44.89,44.89,0,24.79,20.1,44.89,44.89,44.89,24.79,0,44.89-20.1,44.89-44.89Z"/><path class="cls-49" d="M477,390.12c0-24.79-20.1-44.89-44.89-44.89-24.79,0-44.89,20.09-44.89,44.89,0,24.79,20.1,44.89,44.89,44.89,24.79,0,44.89-20.1,44.89-44.89Z"/><path class="cls-64" d="M477.45,389.67c0-24.79-20.1-44.89-44.89-44.89-24.79,0-44.89,20.09-44.89,44.89,0,24.79,20.1,44.89,44.89,44.89,24.79,0,44.89-20.1,44.89-44.89Z"/><path class="cls-68" d="M477.89,389.22c0-24.79-20.1-44.89-44.89-44.89-24.79,0-44.89,20.09-44.89,44.89,0,24.79,20.1,44.89,44.89,44.89,24.79,0,44.89-20.1,44.89-44.89Z"/><path class="cls-60" d="M478.34,388.77c0-24.79-20.1-44.89-44.89-44.89-24.79,0-44.89,20.09-44.89,44.89,0,24.79,20.1,44.89,44.89,44.89,24.79,0,44.89-20.1,44.89-44.89Z"/><path class="cls-67" d="M478.79,388.33c0-24.79-20.1-44.89-44.89-44.89-24.79,0-44.89,20.09-44.89,44.89,0,24.79,20.1,44.89,44.89,44.89,24.79,0,44.89-20.1,44.89-44.89Z"/><path class="cls-53" d="M479.23,387.88c0-24.79-20.1-44.89-44.89-44.89-24.79,0-44.89,20.09-44.89,44.89,0,24.79,20.1,44.89,44.89,44.89,24.79,0,44.89-20.1,44.89-44.89Z"/><path class="cls-18" d="M479.68,387.43c0-24.79-20.1-44.89-44.89-44.89-24.79,0-44.89,20.09-44.89,44.89,0,24.79,20.1,44.89,44.89,44.89,24.79,0,44.89-20.1,44.89-44.89Z"/><path class="cls-63" d="M480.13,386.99c0-24.79-20.1-44.89-44.89-44.89-24.79,0-44.89,20.09-44.89,44.89,0,24.79,20.1,44.89,44.89,44.89,24.79,0,44.89-20.1,44.89-44.89Z"/><path class="cls-66" d="M480.57,386.54c0-24.79-20.1-44.89-44.89-44.89-24.79,0-44.89,20.09-44.89,44.89,0,24.79,20.1,44.89,44.89,44.89,24.79,0,44.89-20.1,44.89-44.89Z"/><path class="cls-48" d="M481.02,386.09c0-24.79-20.1-44.89-44.89-44.89-24.79,0-44.89,20.09-44.89,44.89,0,24.79,20.1,44.89,44.89,44.89,24.79,0,44.89-20.1,44.89-44.89Z"/><path class="cls-51" d="M481.47,385.65c0-24.79-20.1-44.89-44.89-44.89-24.79,0-44.89,20.09-44.89,44.89,0,24.79,20.1,44.89,44.89,44.89,24.79,0,44.89-20.1,44.89-44.89Z"/><path class="cls-22" d="M481.91,385.2c0-24.79-20.1-44.89-44.89-44.89-24.79,0-44.89,20.09-44.89,44.89,0,24.79,20.1,44.89,44.89,44.89,24.79,0,44.89-20.1,44.89-44.89Z"/><path class="cls-19" d="M482.36,384.75c0-24.79-20.1-44.89-44.89-44.89-24.79,0-44.89,20.09-44.89,44.89,0,24.79,20.1,44.89,44.89,44.89,24.79,0,44.89-20.1,44.89-44.89Z"/><path class="cls-21" d="M482.81,384.31c0-24.79-20.1-44.89-44.89-44.89-24.79,0-44.89,20.09-44.89,44.89,0,24.79,20.1,44.89,44.89,44.89,24.79,0,44.89-20.1,44.89-44.89Z"/><path class="cls-26" d="M483.25,383.86c0-24.79-20.1-44.89-44.89-44.89-24.79,0-44.89,20.09-44.89,44.89,0,24.79,20.1,44.89,44.89,44.89,24.79,0,44.89-20.1,44.89-44.89Z"/><path class="cls-27" d="M483.7,383.41c0-24.79-20.1-44.89-44.89-44.89-24.79,0-44.89,20.09-44.89,44.89,0,24.79,20.1,44.89,44.89,44.89,24.79,0,44.89-20.1,44.89-44.89Z"/><path class="cls-28" d="M484.15,382.97c0-24.79-20.1-44.89-44.89-44.89-24.79,0-44.89,20.09-44.89,44.89,0,24.79,20.1,44.89,44.89,44.89,24.79,0,44.89-20.1,44.89-44.89Z"/><path class="cls-35" d="M484.59,382.52c0-24.79-20.1-44.89-44.89-44.89-24.79,0-44.89,20.09-44.89,44.89,0,24.79,20.1,44.89,44.89,44.89,24.79,0,44.89-20.1,44.89-44.89Z"/><path class="cls-31" d="M485.04,382.07c0-24.79-20.1-44.89-44.89-44.89-24.79,0-44.89,20.09-44.89,44.89,0,24.79,20.1,44.89,44.89,44.89,24.79,0,44.89-20.1,44.89-44.89Z"/><path class="cls-33" d="M485.49,381.63c0-24.79-20.1-44.89-44.89-44.89-24.79,0-44.89,20.09-44.89,44.89,0,24.79,20.1,44.89,44.89,44.89,24.79,0,44.89-20.1,44.89-44.89Z"/><path class="cls-15" d="M485.93,381.18c0-24.79-20.1-44.89-44.89-44.89-24.79,0-44.89,20.09-44.89,44.89,0,24.79,20.1,44.89,44.89,44.89,24.79,0,44.89-20.1,44.89-44.89Z"/></g></mask><radialGradient id="radial-gradient-7" cx="-284.18" cy="-438.51" fx="-284.18" fy="-438.51" r="80.67" gradientTransform="translate(168.03 808.28) rotate(-180) scale(1 -1)" xlink:href="#radial-gradient"/><radialGradient id="radial-gradient-8" cx="-305.1" cy="-458.58" fx="-305.1" fy="-458.58" r="89.3" gradientTransform="translate(168.03 808.28) rotate(-180) scale(1 -1)" xlink:href="#radial-gradient-2"/><mask id="mask-5" x="399.39" y="346.03" width="76.8" height="76.8" maskUnits="userSpaceOnUse"><g><path d="M434.54,422.83c-19.41,0-35.15-15.74-35.15-35.15,0-19.41,15.73-35.15,35.15-35.15,19.41,0,35.15,15.74,35.15,35.15s-15.74,35.15-35.15,35.15Z"/><path class="cls-42" d="M434.85,422.52c-19.41,0-35.15-15.74-35.15-35.15,0-19.41,15.73-35.15,35.15-35.15,19.41,0,35.15,15.74,35.15,35.15,0,19.41-15.74,35.15-35.15,35.15Z"/><path class="cls-38" d="M435.16,422.21c-19.41,0-35.15-15.74-35.15-35.15,0-19.41,15.73-35.15,35.15-35.15,19.41,0,35.15,15.74,35.15,35.15,0,19.41-15.74,35.15-35.15,35.15Z"/><path class="cls-41" d="M435.47,421.9c-19.41,0-35.15-15.74-35.15-35.15,0-19.41,15.73-35.15,35.15-35.15,19.41,0,35.15,15.74,35.15,35.15,0,19.41-15.74,35.15-35.15,35.15Z"/><path class="cls-55" d="M435.78,421.59c-19.41,0-35.15-15.74-35.15-35.15,0-19.41,15.73-35.15,35.15-35.15,19.41,0,35.15,15.74,35.15,35.15,0,19.41-15.74,35.15-35.15,35.15Z"/><path class="cls-45" d="M436.09,421.28c-19.41,0-35.15-15.74-35.15-35.15,0-19.41,15.73-35.15,35.15-35.15,19.41,0,35.15,15.74,35.15,35.15,0,19.41-15.74,35.15-35.15,35.15Z"/><path class="cls-44" d="M436.4,420.97c-19.41,0-35.15-15.74-35.15-35.15,0-19.41,15.73-35.15,35.15-35.15,19.41,0,35.15,15.74,35.15,35.15,0,19.41-15.74,35.15-35.15,35.15Z"/><path class="cls-70" d="M436.71,420.66c-19.41,0-35.15-15.74-35.15-35.15,0-19.41,15.73-35.15,35.15-35.15,19.41,0,35.15,15.74,35.15,35.15,0,19.41-15.74,35.15-35.15,35.15Z"/><path class="cls-61" d="M437.02,420.35c-19.41,0-35.15-15.74-35.15-35.15,0-19.41,15.73-35.15,35.15-35.15,19.41,0,35.15,15.74,35.15,35.15,0,19.41-15.74,35.15-35.15,35.15Z"/><path class="cls-54" d="M437.33,420.04c-19.41,0-35.15-15.74-35.15-35.15,0-19.41,15.73-35.15,35.15-35.15,19.41,0,35.15,15.74,35.15,35.15,0,19.41-15.74,35.15-35.15,35.15Z"/><path class="cls-50" d="M437.64,419.73c-19.41,0-35.15-15.74-35.15-35.15,0-19.41,15.73-35.15,35.15-35.15,19.41,0,35.15,15.74,35.15,35.15,0,19.41-15.74,35.15-35.15,35.15Z"/><path class="cls-69" d="M437.95,419.42c-19.41,0-35.15-15.74-35.15-35.15,0-19.41,15.73-35.15,35.15-35.15,19.41,0,35.15,15.74,35.15,35.15,0,19.41-15.74,35.15-35.15,35.15Z"/><path class="cls-62" d="M438.26,419.11c-19.41,0-35.15-15.74-35.15-35.15,0-19.41,15.73-35.15,35.15-35.15,19.41,0,35.15,15.74,35.15,35.15,0,19.41-15.74,35.15-35.15,35.15Z"/><path class="cls-25" d="M438.57,418.8c-19.41,0-35.15-15.74-35.15-35.15,0-19.41,15.73-35.15,35.15-35.15,19.41,0,35.15,15.74,35.15,35.15,0,19.41-15.74,35.15-35.15,35.15Z"/><path class="cls-20" d="M438.88,418.49c-19.41,0-35.15-15.74-35.15-35.15,0-19.41,15.73-35.15,35.15-35.15,19.41,0,35.15,15.74,35.15,35.15,0,19.41-15.74,35.15-35.15,35.15Z"/><path class="cls-29" d="M439.19,418.18c-19.41,0-35.15-15.74-35.15-35.15,0-19.41,15.73-35.15,35.15-35.15,19.41,0,35.15,15.74,35.15,35.15,0,19.41-15.74,35.15-35.15,35.15Z"/><path class="cls-34" d="M439.5,417.87c-19.41,0-35.15-15.74-35.15-35.15,0-19.41,15.73-35.15,35.15-35.15,19.41,0,35.15,15.74,35.15,35.15,0,19.41-15.74,35.15-35.15,35.15Z"/><path class="cls-23" d="M439.81,417.56c-19.41,0-35.15-15.74-35.15-35.15,0-19.41,15.73-35.15,35.15-35.15,19.41,0,35.15,15.74,35.15,35.15,0,19.41-15.74,35.15-35.15,35.15Z"/><path class="cls-36" d="M440.12,417.25c-19.41,0-35.15-15.74-35.15-35.15,0-19.41,15.73-35.15,35.15-35.15,19.41,0,35.15,15.74,35.15,35.15,0,19.41-15.74,35.15-35.15,35.15Z"/><path class="cls-30" d="M440.43,416.94c-19.41,0-35.15-15.74-35.15-35.15,0-19.41,15.73-35.15,35.15-35.15,19.41,0,35.15,15.74,35.15,35.15,0,19.41-15.74,35.15-35.15,35.14Z"/><path class="cls-32" d="M440.74,416.63c-19.41,0-35.15-15.74-35.15-35.15,0-19.41,15.73-35.15,35.15-35.15,19.41,0,35.15,15.74,35.15,35.15,0,19.41-15.74,35.15-35.15,35.14Z"/><path class="cls-15" d="M441.05,416.32c-19.41,0-35.15-15.74-35.15-35.15s15.73-35.15,35.15-35.15c19.41,0,35.15,15.74,35.15,35.15,0,19.41-15.74,35.15-35.15,35.14Z"/></g></mask><radialGradient id="radial-gradient-9" cx="-298.14" cy="-451.75" fx="-298.14" fy="-451.75" r="69.92" gradientTransform="translate(168.03 808.28) rotate(-180) scale(1 -1)" xlink:href="#radial-gradient-3"/><mask id="mask-6" x="165.66" y="465.34" width="103.63" height="103.62" maskUnits="userSpaceOnUse"><g><path class="cls-14" d="M255.44,524.09c0-24.79-20.1-44.89-44.89-44.89s-44.89,20.1-44.89,44.89,20.1,44.89,44.9,44.88c24.79,0,44.89-20.1,44.89-44.88Z"/><path class="cls-47" d="M255.89,523.64c0-24.79-20.1-44.89-44.89-44.89-24.79,0-44.89,20.1-44.89,44.89,0,24.79,20.1,44.89,44.9,44.88,24.79,0,44.89-20.1,44.89-44.88Z"/><path class="cls-37" d="M256.33,523.19c0-24.79-20.1-44.89-44.89-44.89-24.79,0-44.89,20.1-44.89,44.89,0,24.79,20.1,44.89,44.89,44.88,24.79,0,44.89-20.1,44.89-44.88Z"/><path class="cls-46" d="M256.78,522.74c0-24.79-20.1-44.89-44.89-44.89-24.79,0-44.89,20.1-44.89,44.89,0,24.79,20.1,44.89,44.89,44.88,24.79,0,44.89-20.1,44.89-44.88Z"/><path class="cls-40" d="M257.23,522.3c0-24.79-20.1-44.89-44.89-44.89-24.79,0-44.89,20.1-44.89,44.89,0,24.79,20.1,44.89,44.89,44.89,24.79,0,44.89-20.1,44.89-44.89Z"/><path class="cls-39" d="M257.67,521.85c0-24.79-20.1-44.89-44.89-44.89-24.79,0-44.89,20.1-44.89,44.89,0,24.79,20.1,44.89,44.89,44.89,24.79,0,44.89-20.1,44.89-44.89Z"/><path class="cls-57" d="M258.12,521.4c0-24.79-20.1-44.89-44.89-44.89-24.79,0-44.89,20.1-44.89,44.89,0,24.79,20.1,44.89,44.89,44.89,24.79,0,44.89-20.1,44.89-44.89Z"/><path class="cls-24" d="M258.57,520.96c0-24.79-20.1-44.89-44.89-44.89-24.79,0-44.89,20.1-44.89,44.89,0,24.79,20.1,44.89,44.89,44.89,24.79,0,44.89-20.1,44.89-44.89Z"/><path class="cls-59" d="M259.01,520.51c0-24.79-20.1-44.89-44.89-44.89-24.79,0-44.89,20.1-44.89,44.89,0,24.79,20.1,44.89,44.89,44.89,24.79,0,44.89-20.1,44.89-44.89Z"/><path class="cls-58" d="M259.46,520.06c0-24.79-20.1-44.89-44.89-44.89-24.79,0-44.89,20.1-44.89,44.89,0,24.79,20.1,44.89,44.89,44.89,24.79,0,44.89-20.1,44.89-44.89Z"/><path class="cls-43" d="M259.91,519.62c0-24.79-20.1-44.89-44.89-44.89-24.79,0-44.89,20.1-44.89,44.89,0,24.79,20.1,44.89,44.89,44.89,24.79,0,44.89-20.1,44.89-44.89Z"/><path class="cls-49" d="M260.35,519.17c0-24.79-20.1-44.89-44.89-44.89-24.79,0-44.89,20.1-44.89,44.89,0,24.79,20.1,44.89,44.89,44.89,24.79,0,44.89-20.1,44.89-44.89Z"/><path class="cls-64" d="M260.8,518.72c0-24.79-20.1-44.89-44.89-44.89-24.79,0-44.89,20.1-44.89,44.89,0,24.79,20.1,44.89,44.89,44.89,24.79,0,44.89-20.1,44.89-44.89Z"/><path class="cls-68" d="M261.25,518.28c0-24.79-20.1-44.89-44.89-44.89-24.79,0-44.89,20.1-44.89,44.89,0,24.79,20.1,44.89,44.89,44.89,24.79,0,44.89-20.1,44.89-44.89Z"/><path class="cls-60" d="M261.69,517.83c0-24.79-20.1-44.89-44.89-44.89-24.79,0-44.89,20.1-44.89,44.89,0,24.79,20.1,44.89,44.89,44.89,24.79,0,44.89-20.1,44.89-44.89Z"/><path class="cls-67" d="M262.14,517.38c0-24.79-20.1-44.89-44.89-44.89-24.79,0-44.89,20.1-44.89,44.89,0,24.79,20.1,44.89,44.89,44.89,24.79,0,44.89-20.1,44.89-44.89Z"/><path class="cls-53" d="M262.59,516.94c0-24.79-20.1-44.89-44.89-44.89-24.79,0-44.89,20.1-44.89,44.89,0,24.79,20.1,44.89,44.89,44.89,24.79,0,44.89-20.1,44.89-44.89Z"/><path class="cls-18" d="M263.03,516.49c0-24.79-20.1-44.89-44.89-44.89-24.79,0-44.89,20.1-44.89,44.89,0,24.79,20.1,44.89,44.89,44.89,24.79,0,44.89-20.1,44.89-44.89Z"/><path class="cls-63" d="M263.48,516.04c0-24.79-20.1-44.89-44.89-44.89-24.79,0-44.89,20.1-44.89,44.89,0,24.79,20.1,44.89,44.89,44.89,24.79,0,44.89-20.1,44.89-44.89Z"/><path class="cls-66" d="M263.93,515.6c0-24.79-20.1-44.89-44.89-44.89-24.79,0-44.89,20.09-44.89,44.89,0,24.79,20.1,44.89,44.89,44.89,24.79,0,44.89-20.1,44.89-44.89Z"/><path class="cls-48" d="M264.37,515.15c0-24.79-20.1-44.89-44.89-44.89-24.79,0-44.89,20.09-44.89,44.89,0,24.79,20.1,44.89,44.89,44.89,24.79,0,44.89-20.1,44.89-44.89Z"/><path class="cls-51" d="M264.82,514.7c0-24.79-20.1-44.89-44.89-44.89-24.79,0-44.89,20.09-44.89,44.89,0,24.79,20.1,44.89,44.89,44.89,24.79,0,44.89-20.1,44.89-44.89Z"/><path class="cls-22" d="M265.27,514.26c0-24.79-20.1-44.89-44.89-44.89-24.79,0-44.89,20.09-44.89,44.89,0,24.79,20.1,44.89,44.89,44.89,24.79,0,44.89-20.1,44.89-44.89Z"/><path class="cls-19" d="M265.71,513.81c0-24.79-20.1-44.89-44.89-44.89-24.79,0-44.89,20.09-44.89,44.89,0,24.79,20.1,44.89,44.89,44.89,24.79,0,44.89-20.1,44.89-44.89Z"/><path class="cls-21" d="M266.16,513.36c0-24.79-20.1-44.89-44.89-44.89-24.79,0-44.89,20.09-44.89,44.89,0,24.79,20.1,44.89,44.89,44.89,24.79,0,44.89-20.1,44.89-44.89Z"/><path class="cls-26" d="M266.61,512.91c0-24.79-20.1-44.89-44.89-44.89-24.79,0-44.89,20.09-44.89,44.89,0,24.79,20.1,44.89,44.89,44.89,24.79,0,44.89-20.1,44.89-44.89Z"/><path class="cls-27" d="M267.05,512.47c0-24.79-20.1-44.89-44.89-44.89-24.79,0-44.89,20.09-44.89,44.89,0,24.79,20.1,44.89,44.89,44.89,24.79,0,44.89-20.1,44.89-44.89Z"/><path class="cls-28" d="M267.5,512.02c0-24.79-20.1-44.89-44.89-44.89-24.79,0-44.89,20.09-44.89,44.89,0,24.79,20.1,44.89,44.89,44.89,24.79,0,44.89-20.1,44.89-44.89Z"/><path class="cls-35" d="M267.95,511.57c0-24.79-20.1-44.89-44.89-44.89-24.79,0-44.89,20.09-44.89,44.89,0,24.79,20.1,44.89,44.89,44.89,24.79,0,44.89-20.1,44.89-44.89Z"/><path class="cls-31" d="M268.39,511.13c0-24.79-20.1-44.89-44.89-44.89-24.79,0-44.89,20.09-44.89,44.89,0,24.79,20.1,44.89,44.89,44.89,24.79,0,44.89-20.1,44.89-44.89Z"/><path class="cls-33" d="M268.84,510.68c0-24.79-20.1-44.89-44.89-44.89-24.79,0-44.89,20.09-44.89,44.89,0,24.79,20.1,44.89,44.89,44.89,24.79,0,44.89-20.1,44.89-44.89Z"/><path class="cls-15" d="M269.29,510.23c0-24.79-20.1-44.89-44.89-44.89-24.79,0-44.89,20.09-44.89,44.89,0,24.79,20.1,44.89,44.89,44.89,24.79,0,44.89-20.1,44.89-44.89Z"/></g></mask><radialGradient id="radial-gradient-10" cx="93.32" cy="103.07" fx="93.32" fy="103.07" r="80.67" xlink:href="#radial-gradient"/><radialGradient id="radial-gradient-11" cx="72.4" cy="83" fx="72.4" fy="83" r="89.3" xlink:href="#radial-gradient-2"/><mask id="mask-7" x="182.74" y="475.08" width="76.8" height="76.8" maskUnits="userSpaceOnUse"><g><path d="M217.89,551.89c-19.41,0-35.15-15.74-35.15-35.15,0-19.41,15.73-35.15,35.15-35.15,19.41,0,35.15,15.74,35.15,35.14s-15.74,35.15-35.15,35.15Z"/><path class="cls-42" d="M218.2,551.58c-19.41,0-35.15-15.74-35.15-35.15,0-19.41,15.73-35.15,35.15-35.15,19.41,0,35.15,15.74,35.15,35.14,0,19.42-15.74,35.15-35.15,35.15Z"/><path class="cls-38" d="M218.51,551.27c-19.41,0-35.15-15.74-35.15-35.15,0-19.41,15.73-35.15,35.15-35.15,19.41,0,35.15,15.74,35.15,35.14,0,19.42-15.74,35.15-35.15,35.15Z"/><path class="cls-41" d="M218.82,550.96c-19.41,0-35.15-15.74-35.15-35.15,0-19.41,15.73-35.15,35.15-35.15,19.41,0,35.15,15.74,35.15,35.15,0,19.42-15.74,35.15-35.15,35.15Z"/><path class="cls-55" d="M219.13,550.65c-19.41,0-35.15-15.74-35.15-35.15,0-19.41,15.73-35.15,35.15-35.15,19.41,0,35.15,15.74,35.15,35.15,0,19.42-15.74,35.15-35.15,35.15Z"/><path class="cls-45" d="M219.44,550.34c-19.41,0-35.15-15.74-35.15-35.15,0-19.41,15.73-35.15,35.15-35.15,19.41,0,35.15,15.74,35.15,35.15,0,19.41-15.74,35.15-35.15,35.15Z"/><path class="cls-44" d="M219.75,550.03c-19.41,0-35.15-15.74-35.15-35.15,0-19.41,15.73-35.15,35.15-35.15,19.41,0,35.15,15.74,35.15,35.15,0,19.41-15.74,35.15-35.15,35.15Z"/><path class="cls-70" d="M220.06,549.72c-19.41,0-35.15-15.74-35.15-35.15,0-19.41,15.73-35.15,35.15-35.15,19.41,0,35.15,15.74,35.15,35.15,0,19.41-15.74,35.15-35.15,35.15Z"/><path class="cls-61" d="M220.37,549.41c-19.41,0-35.15-15.74-35.15-35.15,0-19.41,15.73-35.15,35.15-35.15,19.41,0,35.15,15.74,35.15,35.15,0,19.41-15.74,35.15-35.15,35.15Z"/><path class="cls-54" d="M220.68,549.1c-19.41,0-35.15-15.74-35.15-35.15,0-19.41,15.73-35.15,35.15-35.15,19.41,0,35.15,15.74,35.15,35.15,0,19.41-15.74,35.15-35.15,35.15Z"/><path class="cls-50" d="M220.99,548.79c-19.41,0-35.15-15.74-35.15-35.15,0-19.41,15.73-35.15,35.15-35.15,19.41,0,35.15,15.74,35.15,35.15,0,19.41-15.74,35.15-35.15,35.15Z"/><path class="cls-69" d="M221.3,548.48c-19.41,0-35.15-15.74-35.15-35.15,0-19.41,15.73-35.15,35.15-35.15,19.41,0,35.15,15.74,35.15,35.15,0,19.41-15.74,35.15-35.15,35.15Z"/><path class="cls-62" d="M221.61,548.17c-19.41,0-35.15-15.74-35.15-35.15,0-19.41,15.73-35.15,35.15-35.15,19.41,0,35.15,15.74,35.15,35.15,0,19.41-15.74,35.15-35.15,35.15Z"/><path class="cls-25" d="M221.92,547.86c-19.41,0-35.15-15.74-35.15-35.15,0-19.41,15.73-35.15,35.15-35.15,19.41,0,35.15,15.74,35.15,35.15,0,19.41-15.74,35.15-35.15,35.15Z"/><path class="cls-20" d="M222.23,547.55c-19.41,0-35.15-15.74-35.15-35.15,0-19.41,15.73-35.15,35.15-35.15,19.41,0,35.15,15.74,35.15,35.15,0,19.41-15.74,35.15-35.15,35.15Z"/><path class="cls-29" d="M222.54,547.24c-19.41,0-35.15-15.74-35.15-35.15,0-19.41,15.73-35.15,35.15-35.15,19.41,0,35.15,15.74,35.15,35.15,0,19.41-15.74,35.15-35.15,35.15Z"/><path class="cls-34" d="M222.85,546.93c-19.41,0-35.15-15.74-35.15-35.15,0-19.41,15.73-35.15,35.15-35.15,19.41,0,35.15,15.74,35.15,35.15,0,19.41-15.74,35.15-35.15,35.15Z"/><path class="cls-23" d="M223.16,546.62c-19.41,0-35.15-15.74-35.15-35.15,0-19.41,15.73-35.15,35.15-35.15,19.41,0,35.15,15.74,35.15,35.15,0,19.41-15.74,35.15-35.15,35.15Z"/><path class="cls-36" d="M223.47,546.31c-19.41,0-35.15-15.73-35.15-35.15,0-19.41,15.73-35.15,35.15-35.15,19.41,0,35.15,15.74,35.15,35.15,0,19.41-15.74,35.15-35.15,35.15Z"/><path class="cls-30" d="M223.78,546c-19.41,0-35.15-15.73-35.15-35.15,0-19.41,15.73-35.15,35.15-35.15,19.41,0,35.15,15.74,35.15,35.15,0,19.41-15.74,35.15-35.15,35.15Z"/><path class="cls-32" d="M224.09,545.69c-19.41,0-35.15-15.73-35.15-35.15,0-19.41,15.73-35.15,35.15-35.15,19.41,0,35.15,15.74,35.15,35.15,0,19.41-15.74,35.15-35.15,35.15Z"/><path class="cls-15" d="M224.4,545.38c-19.41,0-35.15-15.73-35.15-35.15s15.73-35.15,35.15-35.15c19.41,0,35.15,15.74,35.15,35.15,0,19.41-15.74,35.15-35.15,35.15Z"/></g></mask><radialGradient id="radial-gradient-12" cx="79.37" cy="89.82" fx="79.37" fy="89.82" xlink:href="#radial-gradient-3"/></defs><g class="cls-84"><g id="Layer_2"><g id="Layer_1-2"><g id="Connection"><polygon class="cls-73" points="317.11 89.78 317.11 109.13 293.4 132.84 317.11 109.13 317.11 89.78"/><path class="cls-52" d="M293.4,136.63c-2.09,0-3.79-1.69-3.79-3.79s1.7-3.79,3.79-3.79,3.79,1.7,3.79,3.79-1.69,3.79-3.79,3.79Z"/></g><g id="Connection-2"><polygon class="cls-73" points="87.36 224.35 87.36 243.7 111.07 267.41 87.36 243.7 87.36 224.35"/><path class="cls-52" d="M111.07,271.19c2.09,0,3.79-1.69,3.79-3.79s-1.69-3.79-3.79-3.79-3.79,1.7-3.79,3.79,1.7,3.79,3.79,3.79Z"/></g><g id="Circle"><g class="cls-11"><path id="Shadow" class="cls-6" d="M285.15,13.38C293.29,5.12,304.6,0,317.11,0c24.79,0,44.89,20.1,44.89,44.89,0,12.51-5.12,23.82-13.38,31.96l-13.41,13.4c-8.13,8.25-19.45,13.38-31.95,13.37-24.8,0-44.9-20.1-44.9-44.88,0-12.51,5.12-23.83,13.38-31.96l13.4-13.4Z"/></g><g id="Color_Circle"><path class="cls-65" d="M317.11,89.78c24.79,0,44.89-20.1,44.89-44.89S341.9,0,317.11,0s-44.89,20.1-44.89,44.89c0,24.79,20.1,44.89,44.89,44.89Z"/><path class="cls-77" d="M317.11,0C324.36,0,331.2,1.73,337.26,4.78c-.93,1.95-1.46,4.11-1.46,6.41,0,8.29,6.72,15,15,15,2.3,0,4.47-.54,6.42-1.46,3.05,6.06,4.78,12.9,4.78,20.15,0,24.8-20.1,44.89-44.89,44.89s-44.89-20.1-44.89-44.89C272.22,20.1,292.32,0,317.11,0Z"/></g><g id="White_Circle"><g class="cls-89"><path class="cls-5" d="M341.78,69.92c6.46-6.38,10.48-15.24,10.48-25.03,0-19.41-15.74-35.15-35.15-35.15-9.8,0-18.65,4.01-25.02,10.48l-6.15,6.15c-6.47,6.37-10.48,15.23-10.48,25.03,0,19.41,15.74,35.15,35.15,35.15,9.8,0,18.65-4.01,25.02-10.48l6.15-6.15Z"/></g><path class="cls-82" d="M317.11,80.04c19.41,0,35.15-15.74,35.15-35.15s-15.74-35.15-35.15-35.15-35.15,15.74-35.15,35.15,15.73,35.15,35.15,35.15Z"/></g></g><g id="Circle-2"><g class="cls-86"><path id="Shadow-2" class="cls-4" d="M55.4,147.95c8.14-8.25,19.45-13.37,31.96-13.37,24.79,0,44.89,20.1,44.89,44.89,0,12.51-5.12,23.82-13.38,31.96l-13.41,13.4c-8.13,8.25-19.45,13.38-31.95,13.37-24.8,0-44.9-20.1-44.9-44.89,0-12.51,5.12-23.82,13.38-31.96l13.4-13.4Z"/></g><g id="Color_Circle-2"><path class="cls-71" d="M87.36,224.35c24.79,0,44.89-20.1,44.89-44.89s-20.1-44.89-44.89-44.89-44.89,20.1-44.89,44.89,20.1,44.89,44.89,44.89Z"/><path class="cls-76" d="M87.36,134.57c7.25,0,14.09,1.73,20.16,4.78-.93,1.94-1.46,4.11-1.46,6.41,0,8.29,6.72,15,15,15,2.3,0,4.47-.54,6.42-1.46,3.05,6.06,4.78,12.9,4.78,20.15,0,24.8-20.1,44.89-44.89,44.89s-44.89-20.1-44.89-44.89,20.1-44.89,44.89-44.89Z"/></g><g id="White_Circle-2"><g class="cls-85"><path class="cls-5" d="M112.03,204.49c6.46-6.38,10.48-15.24,10.48-25.03,0-19.41-15.74-35.15-35.15-35.15-9.79,0-18.65,4.01-25.02,10.48l-6.15,6.15c-6.47,6.37-10.48,15.23-10.48,25.03,0,19.41,15.73,35.15,35.15,35.15,9.8,0,18.65-4.01,25.02-10.47l6.15-6.15Z"/></g><path class="cls-81" d="M87.35,214.61c19.41,0,35.15-15.73,35.15-35.15s-15.74-35.15-35.15-35.15-35.15,15.74-35.15,35.15,15.73,35.15,35.15,35.15Z"/></g></g><g id="Text"><text id="Text-2" class="cls-80" transform="translate(376.83 471.76)"><tspan x="0" y="0">doing all we can to bring </tspan><tspan x="2.75" y="14">the Kingdom of God on </tspan><tspan x="7.01" y="28">earth as it is in heaven</tspan></text><text class="cls-72" transform="translate(374.79 454.18)"><tspan x="0" y="0">JOYFUL GENEROSITY</tspan></text></g><g id="Text-3"><text id="Text-4" class="cls-80" transform="translate(387.45 47.4)"><tspan x="0" y="0">as we stand strong, side </tspan><tspan x="46.34" y="14">by side</tspan></text><text class="cls-13" transform="translate(368.4 32.95)"><tspan class="cls-74" x="0" y="0">F</tspan><tspan x="6.93" y="0">AITHFUL PERSEVERANCE</tspan></text></g><g id="Text-5"><text id="Text-6" class="cls-80" transform="translate(7.85 119.5)"><tspan x="0" y="0">because life is better together</tspan></text><text class="cls-72" transform="translate(0 105.06)"><tspan x="0" y="0">CONNECTED COMMUNITY</tspan></text></g><g id="Text-7"><g><text class="cls-13" transform="translate(108.56 575.98)"><tspan x="0" y="0">TRANSFORM</tspan><tspan class="cls-2" x="83.53" y="0">A</tspan><tspan x="91.94" y="0">TIVE GRACE &amp; TRUTH</tspan></text><text class="cls-80" transform="translate(113.98 589.98)"><tspan x="0" y="0">As we become more and more like Jesus</tspan></text></g></g><g><g><path class="cls-12" d="M277.19,236.04c16.37,3.35,29.26,16.22,32.68,32.56h41.69c3.33-16.18,15.93-28.97,32.02-32.55-12.36-34.05-39.65-61.01-74.04-73.13-3.85,15.68-16.45,27.88-32.35,31.14v41.99Z"/><path class="cls-12" d="M186.06,268.6h41.48c3.42-16.36,16.34-29.24,32.74-32.57v-41.97c-15.91-3.25-28.54-15.48-32.38-31.18-34.38,12.07-61.7,38.99-74.11,72.99,16.25,3.53,28.97,16.42,32.27,32.74Z"/><path class="cls-12" d="M351.56,285.53h-41.6c-3.3,16.52-16.27,29.56-32.77,32.94v40.71c16.22,3.34,29.03,15.98,32.57,32.12,34.31-12.17,61.52-39.14,73.84-73.15-16.13-3.58-28.75-16.39-32.06-32.62Z"/><path class="cls-12" d="M260.28,318.49c-16.53-3.36-29.53-16.42-32.82-32.96h-41.44c-3.36,16.27-16.11,29.1-32.34,32.57,12.33,34.07,39.58,61.06,73.95,73.22,3.54-16.17,16.39-28.84,32.65-32.15v-40.67Z"/></g><g><path class="cls-17" d="M293.26,152.83c0,13.53-10.98,24.51-24.51,24.51s-24.5-10.98-24.5-24.51,10.97-24.51,24.5-24.51,24.51,10.98,24.51,24.51Z"/><path class="cls-16" d="M293.13,400.59c0,13.54-10.97,24.51-24.5,24.51s-24.52-10.98-24.52-24.51,10.97-24.51,24.52-24.51,24.5,10.98,24.5,24.51Z"/><path class="cls-16" d="M169.34,276.9c0,13.54-10.97,24.51-24.5,24.51s-24.51-10.97-24.51-24.51,10.97-24.51,24.51-24.51,24.5,10.98,24.5,24.51Z"/><path class="cls-16" d="M417.22,277.11c0,13.54-10.98,24.53-24.51,24.53s-24.5-10.99-24.5-24.53,10.97-24.5,24.5-24.5,24.51,10.98,24.51,24.5Z"/><path class="cls-16" d="M293.25,277.26c0,13.54-10.97,24.51-24.51,24.51s-24.5-10.98-24.5-24.51,10.97-24.51,24.5-24.51,24.51,10.98,24.51,24.51Z"/></g></g><g id="Connection-3"><polygon class="cls-73" points="218.67 464.19 218.67 444.84 242.37 421.14 218.67 444.84 218.67 464.19"/><path class="cls-52" d="M242.37,417.35c2.09,0,3.79,1.69,3.79,3.79s-1.69,3.79-3.79,3.79-3.79-1.7-3.79-3.79,1.7-3.79,3.79-3.79Z"/></g><g id="Connection-4"><polygon class="cls-73" points="445.9 335.86 445.9 316.51 422.2 292.8 445.9 316.51 445.9 335.86"/><path class="cls-52" d="M422.2,289.02c-2.09,0-3.79,1.69-3.79,3.79s1.69,3.79,3.79,3.79,3.79-1.7,3.79-3.79c0-2.09-1.7-3.79-3.79-3.79Z"/></g><text class="cls-8" transform="translate(183.38 212.96)"><tspan x="0" y="0" xml:space="preserve"> LOVING &amp;</tspan><tspan x="-4.16" y="13.58" xml:space="preserve"> FORGIVING</tspan></text><text class="cls-8" transform="translate(285.27 212.96)"><tspan x="0" y="0">INTENTIONAL </tspan><tspan x="1.27" y="13.58">&amp; TEACHABLE</tspan></text><text class="cls-9" transform="translate(177.34 334.18)"><tspan class="cls-1" x="0" y="0"> </tspan><tspan class="cls-10" x="3.21" y="0">HOPEFUL &amp; </tspan><tspan class="cls-10"><tspan x="0" y="13.58">CONFIDENT</tspan></tspan></text><text class="cls-8" transform="translate(303.09 333.14)"><tspan x="0" y="0">WHOLE</tspan><tspan x=".22" y="13.58">&amp; HOLY</tspan></text><g id="Circle-3"><g class="cls-88"><path id="Shadow-3" class="cls-3" d="M409.08,349.67c8.14-8.26,19.45-13.38,31.96-13.38,24.79,0,44.89,20.1,44.89,44.89,0,12.51-5.12,23.82-13.37,31.96l-13.41,13.4c-8.14,8.25-19.45,13.38-31.95,13.37-24.8,0-44.9-20.1-44.9-44.88,0-12.51,5.12-23.83,13.38-31.96l13.4-13.4Z"/></g><g id="Color_Circle-3"><path class="cls-56" d="M441.04,426.07c24.79,0,44.89-20.1,44.89-44.89s-20.1-44.89-44.89-44.89-44.89,20.1-44.89,44.89,20.1,44.89,44.89,44.89Z"/><path class="cls-75" d="M441.04,336.29c7.25,0,14.09,1.73,20.16,4.79-.93,1.95-1.46,4.11-1.46,6.41,0,8.29,6.72,15,15,15,2.3,0,4.47-.54,6.42-1.46,3.05,6.06,4.78,12.9,4.78,20.15,0,24.8-20.1,44.89-44.89,44.89s-44.89-20.1-44.89-44.89,20.1-44.89,44.89-44.89Z"/></g><g id="White_Circle-3"><g class="cls-87"><path class="cls-5" d="M465.72,406.21c6.46-6.38,10.48-15.24,10.48-25.03,0-19.42-15.74-35.16-35.15-35.15-9.8,0-18.65,4.01-25.03,10.47l-6.15,6.15c-6.47,6.37-10.48,15.23-10.48,25.03,0,19.41,15.73,35.15,35.15,35.15,9.79,0,18.65-4.01,25.02-10.47l6.16-6.15Z"/></g><path class="cls-83" d="M441.04,416.33c19.41,0,35.15-15.74,35.15-35.15s-15.74-35.15-35.15-35.15-35.15,15.74-35.15,35.15,15.73,35.15,35.15,35.15Z"/></g></g><g id="Circle-4"><g class="cls-91"><path id="Shadow-4" class="cls-7" d="M192.43,478.72c8.14-8.26,19.45-13.38,31.96-13.38,24.79,0,44.89,20.1,44.89,44.89,0,12.51-5.12,23.82-13.38,31.96l-13.41,13.4c-8.13,8.25-19.45,13.38-31.95,13.37-24.8,0-44.9-20.1-44.9-44.88,0-12.51,5.12-23.83,13.38-31.96l13.4-13.4Z"/></g><g id="Color_Circle-4"><path class="cls-65" d="M224.39,555.13c24.79,0,44.89-20.1,44.89-44.89s-20.1-44.89-44.89-44.89-44.89,20.1-44.89,44.89c0,24.79,20.1,44.89,44.89,44.89Z"/><path class="cls-78" d="M224.39,465.34c7.25,0,14.09,1.73,20.16,4.78-.93,1.95-1.46,4.11-1.46,6.41,0,8.29,6.72,15,15,15,2.3,0,4.47-.54,6.42-1.46,3.05,6.06,4.78,12.9,4.78,20.15,0,24.8-20.1,44.89-44.89,44.89s-44.89-20.1-44.89-44.89c0-24.79,20.1-44.89,44.89-44.89Z"/></g><g id="White_Circle-4"><g class="cls-90"><path class="cls-5" d="M249.07,535.26c6.46-6.38,10.48-15.24,10.48-25.03,0-19.41-15.74-35.15-35.15-35.15-9.8,0-18.65,4.01-25.02,10.48l-6.15,6.15c-6.47,6.37-10.48,15.23-10.48,25.03,0,19.41,15.74,35.15,35.15,35.15,9.8,0,18.65-4.01,25.02-10.48l6.15-6.15Z"/></g><path class="cls-79" d="M224.39,545.38c19.41,0,35.15-15.74,35.15-35.15s-15.74-35.15-35.15-35.15-35.15,15.74-35.15,35.15,15.73,35.15,35.15,35.15Z"/></g></g></g></g></g></svg>